<?xml version="1.0" standalone="no"?>
<!DOCTYPE svg PUBLIC "-//W3C//DTD SVG 20010904//EN"
 "http://www.w3.org/TR/2001/REC-SVG-20010904/DTD/svg10.dtd">
<svg version="1.0" xmlns="http://www.w3.org/2000/svg"
 width="4181.000000pt" height="1388.000000pt" viewBox="0 0 4181.000000 1388.000000"
 preserveAspectRatio="xMidYMid meet">

<g transform="translate(0.000000,1388.000000) scale(0.100000,-0.100000)"
fill="#000000" stroke="none">
<path d="M5795 10634 c-704 -79 -1277 -359 -1577 -771 -122 -166 -418 -981
-1093 -3008 -625 -1875 -1496 -4602 -1783 -5585 l-40 -135 1131 -3 c622 -1
1134 1 1137 5 4 5 550 1648 1214 3653 802 2421 1216 3656 1232 3676 66 89 256
101 307 21 7 -12 571 -1669 1252 -3682 681 -2013 1241 -3663 1245 -3668 3 -4
508 -6 1122 -5 l1116 3 -160 505 c-87 278 -337 1070 -554 1760 -694 2201 -961
3034 -1284 4000 -406 1216 -694 2005 -840 2305 -228 465 -795 799 -1555 916
-186 28 -671 36 -870 13z"/>
<path d="M28799 6845 c-103 -19 -237 -69 -292 -108 -50 -36 -99 -93 -128 -149
-25 -49 -56 -168 -63 -243 -4 -33 -15 -1085 -27 -2338 -14 -1644 -17 -2300 -9
-2355 24 -176 89 -302 197 -384 87 -65 157 -89 275 -96 176 -9 296 33 400 140
116 118 157 244 164 508 5 167 34 3368 34 3689 0 85 2 152 4 150 3 -2 203
-832 446 -1844 243 -1012 455 -1892 471 -1955 83 -316 145 -441 279 -563 120
-108 231 -147 425 -147 201 0 329 45 440 154 120 118 173 231 274 591 27 94
257 969 512 1945 l464 1775 3 -180 c2 -99 -4 -984 -13 -1967 -17 -1867 -17
-1876 25 -2009 61 -197 248 -329 466 -329 213 0 371 95 460 275 54 111 65 179
71 450 12 655 39 4409 32 4478 -31 279 -177 419 -499 478 -115 21 -788 19
-890 -3 -167 -36 -256 -100 -322 -233 -71 -139 -145 -392 -579 -1982 -233
-854 -426 -1553 -429 -1553 -3 0 -178 672 -389 1493 -211 820 -408 1580 -438
1687 -58 211 -117 368 -165 442 -56 88 -156 144 -311 174 -118 23 -779 30
-888 9z"/>
<path d="M40000 6697 c-168 -57 -268 -155 -326 -319 -20 -59 -44 -340 -44
-533 0 -88 -3 -264 -7 -391 l-6 -231 -126 -6 c-183 -8 -265 -37 -363 -126 -79
-73 -103 -130 -103 -251 0 -82 4 -103 26 -150 71 -149 203 -218 437 -227 l133
-6 -5 -46 c-12 -101 -18 -2185 -7 -2316 24 -271 75 -495 138 -605 134 -232
356 -362 703 -411 144 -21 563 -18 715 5 249 38 416 106 526 215 85 85 112
149 113 271 0 101 -26 171 -93 242 -109 119 -239 134 -556 64 -92 -21 -236
-20 -306 0 -40 12 -66 28 -100 64 -58 59 -86 131 -99 253 -11 108 -13 677 -3
1594 l6 660 216 6 c242 6 325 21 446 79 112 53 157 112 176 230 31 192 -75
357 -271 420 -57 18 -97 21 -313 26 l-248 4 2 507 c1 343 -2 530 -10 580 -29
188 -175 348 -370 405 -80 23 -201 20 -281 -7z"/>
<path d="M16210 5720 l0 -490 -280 0 -280 0 0 -395 0 -395 279 0 280 0 4
-1097 c3 -953 6 -1114 20 -1221 52 -387 123 -561 296 -732 141 -139 271 -207
477 -249 160 -32 314 -41 757 -41 l417 0 0 380 0 380 -337 0 c-375 1 -452 9
-556 58 -110 52 -170 129 -209 268 l-23 79 -3 1088 -3 1087 571 0 570 0 0 395
0 395 -570 0 -570 0 0 490 0 490 -420 0 -420 0 0 -490z"/>
<path d="M25290 6106 c0 -2 7 -7 16 -10 8 -3 12 -2 9 4 -6 10 -25 14 -25 6z"/>
<path d="M25330 6099 c0 -13 14 -17 35 -9 17 6 16 7 -8 12 -15 3 -27 2 -27 -3z"/>
<path d="M25390 6102 c0 -4 13 -7 29 -7 16 -1 27 3 25 7 -7 10 -54 11 -54 0z"/>
<path d="M25505 6084 c17 -9 57 -18 90 -19 63 -3 63 -2 2 14 -22 5 -35 6 -32
0 9 -14 -18 -10 -39 6 -11 8 -27 15 -35 15 -9 0 -2 -7 14 -16z"/>
<path d="M25410 6066 c0 -2 9 -6 20 -9 11 -3 18 -1 14 4 -5 9 -34 13 -34 5z"/>
<path d="M25694 6055 c11 -8 24 -15 30 -15 5 0 1 7 -10 15 -10 8 -23 14 -29
14 -5 0 -1 -6 9 -14z"/>
<path d="M25498 6053 c7 -3 16 -2 19 1 4 3 -2 6 -13 5 -11 0 -14 -3 -6 -6z"/>
<path d="M25588 6048 c5 -5 16 -8 23 -6 8 3 3 7 -10 11 -17 4 -21 3 -13 -5z"/>
<path d="M25548 6043 c7 -3 16 -2 19 1 4 3 -2 6 -13 5 -11 0 -14 -3 -6 -6z"/>
<path d="M25772 6036 c10 -7 16 -15 13 -18 -3 -2 1 -5 8 -6 6 0 30 -3 52 -6
32 -5 36 -3 22 5 -11 6 -24 12 -30 13 -7 2 -25 8 -40 14 -37 16 -46 15 -25 -2z"/>
<path d="M25710 6026 c0 -2 8 -10 18 -17 15 -13 16 -12 3 4 -13 16 -21 21 -21
13z"/>
<path d="M25430 6009 c0 -5 5 -7 10 -4 6 3 10 8 10 11 0 2 -4 4 -10 4 -5 0
-10 -5 -10 -11z"/>
<path d="M25895 6000 c-4 -6 3 -10 14 -10 25 0 27 6 6 13 -8 4 -17 2 -20 -3z"/>
<path d="M25968 5971 c15 -14 30 -25 34 -24 3 1 12 -4 18 -12 7 -8 21 -15 31
-15 9 0 24 -7 33 -15 9 -9 17 -11 21 -5 3 5 2 10 -2 10 -14 0 -49 29 -36 30 7
0 25 -11 40 -25 19 -16 23 -25 13 -25 -12 0 -11 -3 3 -11 9 -5 17 -15 17 -21
0 -7 -7 -5 -17 4 -21 18 -82 43 -88 36 -3 -2 14 -13 37 -23 24 -10 37 -20 30
-23 -7 -2 -19 2 -28 8 -8 7 -18 10 -21 6 -11 -10 14 -23 59 -30 21 -4 37 -10
34 -14 -3 -5 14 -7 37 -6 23 1 36 -1 30 -3 -7 -3 -13 -9 -13 -14 0 -6 4 -8 9
-4 5 3 13 0 16 -6 4 -5 14 -8 22 -5 8 3 12 2 9 -3 -3 -5 9 -16 27 -24 17 -9
38 -25 45 -37 19 -30 54 -41 70 -21 10 13 12 13 10 1 -2 -8 -7 -18 -13 -22 -6
-5 -5 -15 3 -29 12 -19 12 -21 -2 -16 -24 9 -19 -9 6 -27 17 -12 24 -13 30 -3
5 9 8 7 8 -4 0 -16 28 -34 38 -25 6 7 -26 56 -37 56 -5 0 -11 9 -14 20 -5 20
-5 20 31 -1 l37 -21 -35 30 c-19 17 -32 33 -29 36 3 3 25 -10 48 -30 23 -20
40 -38 38 -41 -8 -8 48 -57 66 -58 20 -2 74 -51 65 -60 -3 -3 -20 8 -37 26
-18 17 -35 28 -39 25 -4 -4 11 -22 32 -40 22 -20 33 -35 26 -38 -9 -3 -8 -8 4
-20 9 -9 16 -19 16 -23 0 -3 9 -15 20 -27 11 -12 20 -27 20 -32 0 -6 14 -19
30 -28 20 -11 30 -13 30 -5 0 12 27 -23 28 -36 0 -4 8 -20 18 -34 16 -25 16
-27 -2 -41 -18 -13 -18 -14 4 -7 13 4 29 2 37 -5 8 -6 18 -9 23 -6 9 5 24 -19
36 -57 3 -10 10 -16 15 -12 5 3 13 1 16 -5 4 -6 1 -9 -6 -8 -6 2 -14 -3 -17
-11 -3 -8 0 -11 7 -7 6 4 19 0 28 -10 16 -16 16 -16 -5 -9 -23 7 -23 7 -7 -31
9 -21 20 -41 24 -44 5 -3 19 -24 31 -47 22 -42 35 -58 24 -28 -7 18 0 19 27 5
11 -7 19 -7 19 -1 0 5 -5 11 -11 13 -6 2 -10 13 -7 23 3 17 6 15 20 -13 14
-28 15 -34 2 -46 -10 -10 -11 -17 -3 -21 6 -4 8 -13 5 -21 -3 -8 -1 -14 5 -14
13 0 1 -42 -15 -52 -6 -4 -19 0 -28 9 -15 13 -18 13 -18 2 0 -11 -2 -11 -11 1
-7 11 -8 6 -4 -19 5 -23 4 -31 -4 -27 -6 4 -11 3 -11 -3 0 -5 6 -11 13 -14 9
-3 9 -7 -1 -19 -9 -11 -10 -18 -2 -23 5 -3 10 -3 11 2 0 4 4 -1 8 -12 5 -12 3
-24 -5 -32 -7 -7 -15 -18 -18 -25 -5 -10 -7 -10 -12 0 -3 6 -10 12 -16 12 -17
0 -48 41 -48 63 0 22 -10 18 -14 -6 -1 -8 -8 -23 -16 -32 -11 -14 -11 -18 -1
-25 8 -4 11 -12 7 -18 -3 -5 4 -21 15 -36 23 -29 34 -96 16 -96 -7 0 3 -13 21
-29 31 -25 33 -30 21 -49 -7 -12 -10 -25 -6 -29 5 -4 12 -1 17 7 10 16 21 -6
35 -69 5 -26 4 -32 -6 -29 -8 2 -18 14 -24 26 -5 12 -15 24 -22 26 -21 9 -15
-19 11 -47 13 -14 21 -29 17 -33 -3 -3 4 -3 16 0 18 6 22 4 17 -8 -3 -9 -1
-16 5 -16 6 0 11 -7 11 -16 0 -8 7 -22 15 -30 8 -9 15 -12 15 -8 0 4 7 -1 15
-12 8 -11 15 -14 15 -6 0 28 20 9 20 -20 0 -23 3 -29 9 -19 5 8 16 11 26 8 9
-4 13 -11 10 -17 -3 -5 1 -10 9 -10 8 0 22 -7 31 -16 15 -15 17 -15 30 2 8 11
15 25 15 32 0 20 16 14 16 -7 0 -11 -3 -18 -7 -15 -9 5 -23 -35 -15 -43 3 -4
6 -1 6 5 0 7 5 12 11 12 7 0 9 -9 6 -22 -5 -21 -5 -21 7 -5 17 23 25 22 19 -3
-3 -11 -9 -20 -14 -20 -5 0 -9 -7 -9 -16 0 -8 -4 -12 -10 -9 -5 3 -10 1 -10
-4 0 -20 29 -11 35 10 7 19 7 20 21 2 18 -24 17 -36 -2 -29 -14 5 -15 4 -4 -9
7 -8 16 -15 21 -15 15 0 10 47 -6 60 -16 13 -21 40 -7 40 4 0 14 -5 22 -10 11
-7 11 -10 2 -10 -10 0 -10 -5 -2 -21 11 -20 12 -20 25 -2 13 17 14 16 15 -10
0 -16 4 -26 10 -22 6 4 9 -3 7 -16 -1 -15 6 -27 21 -35 24 -12 19 -23 -8 -19
-17 3 -22 -46 -5 -57 5 -4 -5 -8 -23 -8 -20 0 -31 -4 -27 -10 3 -5 2 -10 -3
-10 -12 0 -25 66 -17 80 4 6 -1 17 -10 26 -14 14 -15 13 -11 -18 2 -18 7 -41
11 -50 4 -11 3 -18 -4 -18 -6 0 -11 5 -11 10 0 16 -27 12 -34 -6 -3 -8 -2 -12
4 -9 6 3 10 -4 9 -17 0 -13 -3 -17 -6 -10 -7 17 -23 15 -23 -4 0 -8 -4 -12
-10 -9 -5 3 -10 17 -10 29 0 13 -8 30 -17 37 -11 10 -14 10 -9 2 4 -7 4 -18 0
-24 -7 -12 -74 56 -74 74 0 4 -4 5 -10 2 -5 -3 -10 -1 -10 4 0 6 -5 10 -12 9
-6 -2 -14 5 -16 16 -2 11 0 16 7 12 6 -4 11 -2 11 3 0 14 -6 14 -31 0 -18 -9
-20 -8 -17 13 2 19 -3 24 -34 32 -21 5 -38 13 -38 17 0 4 -10 5 -22 2 -13 -3
-20 -3 -16 1 3 4 2 21 -2 37 -5 16 -5 27 0 24 5 -3 11 -1 15 5 3 5 -1 10 -9
10 -9 0 -16 7 -16 15 0 8 -4 15 -10 15 -5 0 -7 -6 -4 -14 3 -8 1 -17 -5 -21
-7 -4 -11 5 -12 22 0 27 -1 27 -9 6 -13 -33 -39 -27 -53 11 -4 10 -10 16 -14
13 -3 -4 -14 -2 -24 4 -13 6 -19 6 -19 -1 0 -5 -8 -10 -17 -10 -15 0 -16 2 -3
10 8 5 10 10 4 10 -7 0 -15 7 -18 16 -3 8 -2 12 4 9 6 -3 10 -1 10 5 0 6 5 8
11 4 7 -4 10 -1 7 7 -3 8 -10 13 -16 12 -5 -1 -8 7 -4 19 3 15 1 19 -9 16 -7
-2 -21 5 -31 16 -12 15 -17 17 -18 7 0 -10 -10 -5 -30 14 -32 31 -39 55 -15
55 8 0 15 7 15 15 0 8 5 15 11 15 7 0 9 10 5 26 -8 29 -36 64 -36 44 0 -7 -6
-10 -13 -7 -8 3 -20 1 -27 -3 -15 -9 -60 8 -60 23 0 5 7 7 15 3 20 -7 20 32 0
57 -7 11 -11 26 -8 34 5 13 3 13 -16 4 -17 -10 -25 -8 -44 9 l-22 21 -3 -20
c-2 -12 -8 -21 -14 -21 -6 0 -7 -7 -3 -17 4 -10 11 -39 14 -64 l7 -46 -28 16
c-15 9 -29 25 -30 36 -2 11 -12 21 -23 22 -20 3 -20 3 0 -5 18 -8 18 -9 1 -19
-17 -9 -16 -12 9 -35 23 -22 25 -29 16 -44 -11 -18 -12 -17 -6 2 4 14 0 24
-10 28 -18 6 -31 -17 -19 -35 4 -8 3 -9 -4 -5 -7 4 -12 18 -12 32 0 14 -4 22
-10 19 -6 -3 -8 -16 -4 -29 4 -16 1 -23 -9 -23 -9 0 -13 6 -10 14 3 7 -2 13
-11 13 -9 0 -16 7 -16 15 0 8 -5 15 -11 15 -5 0 -7 -4 -4 -10 3 -5 2 -10 -3
-10 -13 0 -12 110 0 134 7 13 13 15 21 7 16 -16 37 -14 37 4 0 8 -7 15 -15 15
-8 0 -15 5 -15 10 0 6 7 10 15 10 8 0 15 5 15 10 0 17 -28 23 -59 12 -23 -8
-29 -8 -25 2 3 8 -5 16 -18 20 -13 4 -18 10 -11 12 7 3 20 1 30 -5 16 -8 18
-6 18 15 -2 31 -14 42 -25 24 -8 -13 -10 -13 -10 1 0 9 -7 22 -15 29 -13 11
-13 15 -3 21 10 7 9 9 -4 9 -9 0 -20 5 -24 12 -4 6 -3 8 4 4 16 -10 27 15 11
25 -8 5 -22 7 -31 5 -10 -2 -18 0 -18 5 0 5 4 9 9 9 5 0 11 9 14 20 3 11 1 20
-4 20 -5 0 -9 -4 -9 -10 0 -6 -17 -8 -42 -5 -44 6 -64 15 -33 15 18 0 18 1 -1
14 -13 10 -21 11 -26 3 -4 -7 -11 0 -19 16 -10 22 -10 32 1 52 7 14 19 25 27
25 18 0 16 17 -3 24 -15 6 -11 26 6 26 5 0 23 -15 41 -32 18 -18 30 -28 26
-22 -4 7 -1 14 7 17 17 7 26 -1 26 -20 0 -17 19 -36 40 -42 46 -11 90 -12 90
-1 0 7 -6 10 -13 7 -8 -3 -27 5 -43 18 l-29 24 43 7 c31 5 42 11 42 25 0 25
-17 33 -28 13 -6 -10 -12 -13 -16 -6 -3 6 4 18 16 26 25 18 45 7 50 -26 2 -12
9 -23 16 -26 7 -2 10 2 6 12 -5 13 -1 14 25 6 17 -5 29 -5 26 0 -3 5 -1 11 5
15 5 3 -4 19 -21 35 -33 33 -44 38 -35 15 7 -18 -10 -20 -21 -2 -4 7 -19 21
-32 30 -25 17 -30 29 -33 80 0 15 -6 27 -12 27 -6 0 -5 4 2 9 11 7 11 9 -2 14
-9 4 -24 -3 -36 -16 -22 -23 -43 -18 -64 16 -13 20 0 35 16 19 17 -17 45 -15
52 3 5 13 -6 15 -64 14 -43 -1 -67 -5 -64 -11 4 -6 -3 -8 -17 -4 -20 6 -21 5
-6 -4 9 -6 17 -21 17 -33 0 -31 15 -51 30 -42 9 5 11 4 6 -3 -4 -7 -2 -12 3
-12 6 0 11 -4 11 -10 0 -5 -9 -10 -19 -10 -11 0 -23 -5 -26 -11 -5 -6 -11 -5
-18 5 -10 13 -19 14 -44 7 -20 -6 -35 -6 -38 0 -4 5 -1 9 4 9 6 0 11 11 11 25
0 14 -6 25 -12 25 -9 0 -9 3 1 9 9 6 11 16 6 27 -4 11 -9 14 -12 8 -5 -15 -43
-6 -43 10 0 6 -5 3 -11 -7 -6 -10 -8 -25 -5 -33 3 -8 2 -12 -3 -9 -5 3 -11 -3
-14 -12 -3 -15 -6 -13 -17 9 -7 14 -23 29 -36 32 -25 7 -31 30 -15 55 10 16
31 6 31 -15 0 -8 -4 -12 -10 -9 -5 3 -10 1 -10 -4 0 -17 36 -13 50 5 11 13 10
16 -8 21 -28 7 -28 16 0 28 26 12 36 44 17 56 -11 6 -10 12 4 27 15 17 16 20
3 25 -14 6 -16 22 -5 42 4 6 6 22 5 37 -1 14 2 24 6 22 4 -3 8 -1 8 5 0 5 -7
14 -16 19 -14 8 -14 12 0 45 12 30 20 37 42 37 21 0 24 3 15 13 -6 8 -8 16 -5
19 2 3 -2 8 -11 12 -13 4 -15 1 -10 -14 4 -11 2 -20 -3 -20 -5 0 -13 15 -16
34 -5 26 -11 34 -26 33 -24 -2 -25 -5 -3 -29 22 -24 3 -23 -46 2 -22 11 -58
22 -80 26 -23 4 -41 10 -41 15 0 4 -15 3 -32 -2 -43 -12 -48 -12 -48 5 0 9 -7
12 -20 9 -11 -3 -17 -9 -14 -14 3 -5 0 -9 -6 -9 -7 0 -10 7 -7 15 4 8 2 17 -3
20 -6 4 -10 1 -10 -5 0 -7 -7 -9 -16 -6 -23 9 -54 -2 -54 -19 0 -9 -8 -11 -33
-6 -27 7 -36 4 -52 -16 -11 -12 -26 -23 -32 -23 -7 0 -13 -5 -13 -11 0 -8 -5
-7 -15 1 -12 10 -19 10 -27 2 -15 -15 -28 -15 -28 -2 0 6 7 10 15 10 8 0 15 5
15 10 0 6 -5 10 -12 10 -9 0 -8 3 1 13 11 10 14 10 18 0 7 -20 53 -16 53 5 0
14 -2 15 -10 2 -8 -13 -10 -12 -10 4 0 14 -3 16 -13 7 -8 -6 -16 -9 -19 -6 -3
3 -22 -2 -42 -10 -21 -9 -35 -11 -31 -6 4 7 -5 11 -22 10 -17 -1 -21 -3 -10
-6 9 -2 15 -8 12 -13 -3 -5 5 -18 17 -29 14 -14 17 -21 8 -21 -9 0 -6 -7 8
-20 22 -21 29 -40 14 -40 -4 0 -15 9 -25 20 -9 11 -27 19 -39 19 l-23 -2 23
-4 c12 -2 20 -8 17 -13 -3 -5 -12 -7 -20 -3 -10 3 -15 -2 -15 -16 0 -19 -9
-25 -35 -22 -5 0 -18 -14 -28 -32 -10 -17 -13 -26 -6 -19 19 18 32 15 20 -5
-7 -14 -3 -21 20 -35 16 -10 29 -24 29 -32 0 -7 8 -20 17 -27 9 -8 14 -9 10
-3 -4 7 5 11 23 11 32 0 63 20 54 35 -3 5 -25 7 -48 4 -22 -3 -35 -3 -28 0 14
7 17 34 3 34 -5 0 -11 -6 -13 -12 -3 -9 -9 -8 -22 5 -21 20 -12 40 14 32 12
-4 22 0 28 11 6 10 16 15 25 11 9 -3 19 -2 22 3 4 6 -1 10 -9 10 -8 0 -18 5
-22 11 -4 8 3 9 25 4 21 -4 37 -2 48 7 10 7 14 8 10 1 -4 -6 -1 -14 5 -16 7
-3 1 -6 -13 -6 -14 -1 -35 -12 -48 -27 -25 -29 -21 -44 6 -23 16 13 17 12 4
-4 -8 -9 -11 -21 -7 -24 4 -4 10 -3 14 3 10 14 31 11 42 -6 5 -8 12 -12 15 -8
4 3 -3 15 -15 26 -22 21 -14 37 14 26 9 -3 16 -2 16 4 0 6 15 15 33 21 25 9
29 14 17 21 -35 22 27 -1 82 -30 13 -7 16 -6 12 4 -11 29 16 25 50 -7 35 -35
36 -46 1 -65 -18 -10 -17 -10 10 -7 17 2 36 4 43 4 6 1 12 8 12 17 0 9 -5 12
-12 8 -7 -4 -8 -3 -4 5 4 6 12 9 17 5 5 -3 16 -1 23 5 14 12 46 5 59 -13 5 -7
10 -6 17 4 11 17 -13 36 -32 24 -7 -4 -8 -3 -4 4 4 6 23 11 43 10 21 -1 39 4
41 11 3 9 8 9 20 -1 12 -10 14 -10 8 0 -4 7 -1 12 8 12 9 0 16 -4 16 -9 0 -5
8 -11 18 -14 14 -3 13 -4 -3 -4 -46 -1 -55 -4 -55 -14 0 -5 6 -7 13 -4 6 3 2
-2 -10 -11 -28 -20 -29 -34 -4 -34 28 0 46 -26 24 -34 -10 -4 -20 -1 -25 8 -5
8 -15 13 -23 10 -8 -4 -13 -10 -10 -14 3 -4 -2 -13 -10 -20 -12 -10 -15 -10
-15 0 0 6 -6 10 -12 7 -7 -2 -12 -10 -10 -17 2 -7 -3 -10 -12 -7 -24 9 -26 -4
-6 -44 22 -41 45 -59 82 -59 21 -1 22 -2 6 -14 -10 -7 -18 -18 -18 -25 0 -16
-15 -14 -30 4 -7 8 -20 14 -29 14 -13 -1 -13 -2 2 -6 11 -3 17 -14 17 -30 l0
-26 -26 23 c-21 21 -27 22 -34 10 -6 -8 -8 -21 -5 -28 3 -8 5 -19 5 -25 0 -8
4 -7 12 1 18 18 28 15 28 -8 0 -11 -6 -20 -12 -20 -7 0 -4 -6 6 -12 14 -8 24
-8 39 1 24 15 36 5 14 -12 -20 -15 -12 -57 11 -57 9 0 31 -5 49 -12 24 -9 33
-18 33 -35 0 -13 -4 -23 -10 -23 -5 0 -10 5 -10 11 0 6 -9 8 -20 4 -13 -4 -34
1 -54 13 -20 12 -39 16 -47 12 -17 -10 -69 -1 -69 11 0 5 -11 4 -24 -1 -14 -5
-27 -5 -32 0 -5 5 -18 11 -29 13 -11 1 -26 6 -33 11 -7 4 -18 3 -25 -2 -7 -5
-24 -9 -40 -8 -28 2 -40 -16 -46 -65 0 -5 -5 -8 -10 -4 -5 3 -17 -3 -27 -12
-11 -11 -13 -18 -5 -21 16 -5 14 -27 -4 -42 -13 -11 -13 -15 -3 -21 10 -7 9
-9 -4 -9 -10 0 -18 -4 -18 -10 0 -5 6 -10 14 -10 8 0 13 -8 11 -17 -2 -10 -4
-22 -4 -26 -1 -5 -5 -6 -11 -2 -5 3 -7 12 -4 19 3 9 -1 13 -13 13 -12 -1 -19
6 -21 21 -2 15 -9 22 -17 18 -9 -3 -12 0 -8 10 3 7 0 14 -6 14 -6 0 -11 -9
-11 -20 0 -11 -4 -20 -10 -20 -5 0 -10 -9 -10 -20 0 -11 -4 -20 -10 -20 -13 0
-12 2 1 37 6 15 13 40 15 54 4 24 2 25 -28 22 -18 -1 -27 0 -21 3 16 7 -2 46
-20 43 -21 -4 -67 13 -62 22 3 4 12 6 20 2 8 -3 15 0 15 6 0 7 -7 14 -15 17
-8 4 -15 11 -15 16 0 6 6 5 15 -2 11 -9 15 -9 15 -1 0 14 -40 30 -57 24 -12
-5 -28 -50 -24 -70 2 -17 -26 -6 -33 13 -3 7 2 17 10 22 14 8 14 12 3 31 -12
19 -12 24 4 35 32 24 13 65 -32 69 -12 1 -20 6 -20 12 3 25 -3 34 -33 54 -18
11 -29 21 -24 21 5 0 3 7 -4 15 -8 10 -9 15 -2 15 6 0 16 -8 22 -17 9 -15 10
-14 4 7 -4 14 -10 26 -15 28 -4 2 -5 10 -2 18 4 12 0 13 -22 4 -28 -11 -49 -5
-39 11 3 5 2 9 -3 8 -4 -1 -15 0 -23 4 -8 3 -39 8 -69 11 -29 3 -59 11 -67 17
-11 9 -19 8 -34 -6 -17 -15 -23 -16 -33 -5 -6 7 -7 10 -2 7 6 -3 17 -1 25 4
11 8 7 9 -16 7 -26 -3 -31 -1 -26 11 5 14 3 14 -11 3 -20 -17 -52 -12 -52 8 0
23 -77 25 -117 3 -18 -10 -56 -27 -84 -38 -50 -19 -114 -65 -114 -82 0 -4 -12
-16 -25 -26 -26 -19 -30 -17 -80 30 -14 13 -31 10 -121 -18 -69 -22 -91 -46
-117 -127 -17 -55 -14 -82 9 -82 8 0 14 -4 14 -10 0 -5 -7 -10 -15 -10 -8 0
-15 5 -15 10 0 6 -7 10 -15 10 -8 0 -15 -7 -15 -16 0 -9 -5 -14 -12 -12 -6 2
-20 -4 -30 -14 -41 -41 -57 -9 -28 55 10 20 11 30 2 39 -8 8 -9 5 -5 -12 4
-16 3 -21 -5 -16 -12 7 -37 -38 -33 -61 1 -6 -3 -14 -9 -18 -5 -3 -10 -13 -10
-21 0 -10 7 -13 25 -8 28 7 30 2 14 -28 -8 -15 -8 -19 0 -14 6 4 11 3 11 -3 0
-5 -14 -9 -30 -9 -20 1 -29 5 -26 13 2 6 0 18 -5 26 -8 12 -12 11 -24 -5 -16
-21 -19 -15 -17 33 1 14 -5 33 -14 42 -14 16 -14 20 2 51 16 31 16 32 -1 18
-34 -28 -40 -80 -9 -80 23 0 16 -21 -16 -51 -30 -30 -50 -37 -50 -19 0 6 -5
10 -11 10 -6 0 -9 -7 -5 -15 3 -8 1 -15 -5 -15 -6 0 -7 -5 -4 -10 4 -6 11 -8
16 -5 5 4 9 2 9 -3 0 -8 -22 -22 -36 -22 -2 0 -4 12 -4 28 0 29 26 75 38 68 4
-2 12 6 19 19 6 14 8 23 4 22 -10 -3 -13 12 -6 43 4 17 13 30 20 30 18 0 28
17 18 33 -12 20 -13 41 0 49 9 5 9 10 0 19 -10 10 -9 15 5 25 9 7 17 18 17 26
0 7 9 14 19 16 14 3 17 0 13 -11 -7 -19 18 -13 45 10 9 8 21 12 27 9 5 -4 12
-2 16 4 4 6 11 8 16 5 5 -4 9 -2 9 4 0 5 9 12 19 16 16 5 29 27 29 53 1 4 -7
6 -16 4 -14 -2 -13 1 4 16 12 10 24 27 28 39 3 11 18 25 31 31 14 6 25 16 25
22 0 6 10 6 28 -1 15 -6 47 -13 71 -15 42 -4 43 -4 39 21 -6 27 6 35 15 10 5
-11 12 -12 37 -4 16 6 27 15 24 20 -3 5 2 6 11 3 16 -7 45 12 45 28 0 6 -7 8
-14 5 -11 -4 -13 -1 -9 11 6 15 5 15 -11 2 -16 -12 -20 -12 -30 1 -11 15 -96
22 -96 7 0 -4 -9 -5 -19 -3 -11 2 -22 -3 -25 -11 -3 -8 -17 -14 -30 -14 -18 0
-24 -4 -20 -15 7 -17 -11 -21 -21 -4 -5 7 -14 5 -29 -5 -13 -8 -40 -18 -60
-21 -20 -4 -41 -16 -47 -26 -5 -11 -20 -19 -35 -19 -17 0 -23 4 -18 13 4 6 -6
-3 -23 -20 -36 -38 -48 -42 -33 -10 l11 22 -20 -22 c-21 -24 -50 -30 -68 -12
-7 7 -19 -1 -42 -26 -17 -20 -31 -31 -31 -24 0 6 18 30 40 52 83 83 121 143
56 88 -19 -16 -19 -16 0 14 l19 30 -40 -30 c-49 -36 -135 -121 -135 -134 0 -5
-11 -11 -24 -15 -13 -3 -41 -25 -63 -48 -43 -46 -111 -100 -98 -77 5 8 -1 5
-13 -5 -23 -20 -30 -32 -12 -21 15 9 12 -11 -3 -24 -8 -6 -18 -7 -22 -3 -5 4
-5 2 -2 -5 4 -6 -12 -31 -35 -56 -67 -70 -79 -87 -60 -87 5 0 14 11 20 25 6
14 19 25 28 25 15 0 16 -2 2 -17 -9 -10 -23 -33 -33 -52 -12 -23 -19 -30 -25
-21 -10 16 -63 -17 -56 -35 2 -7 -6 -23 -20 -36 -13 -12 -24 -28 -24 -34 0 -6
-6 -17 -12 -23 -7 -7 -13 -20 -13 -30 0 -9 -6 -16 -12 -14 -7 1 -13 -4 -13
-12 0 -7 -11 -25 -25 -40 -14 -15 -26 -31 -26 -37 -1 -5 -3 -13 -4 -19 -1 -5
-3 -16 -4 -24 0 -8 -7 -21 -15 -29 -20 -20 -72 -125 -87 -177 -7 -25 -19 -55
-27 -68 -8 -12 -15 -41 -15 -62 0 -22 -3 -40 -7 -40 -4 0 -8 -12 -8 -27 -1
-43 -21 -184 -31 -219 -5 -18 -9 -79 -9 -135 1 -57 -3 -112 -7 -121 -4 -11 -3
-18 3 -18 6 0 14 10 17 21 5 16 9 18 15 9 5 -7 13 -9 21 -4 7 4 3 -6 -9 -23
-25 -35 -29 -51 -8 -34 11 9 15 9 19 -1 4 -8 6 -7 6 5 1 18 16 23 25 8 8 -13
-4 -42 -15 -35 -5 3 -9 -2 -9 -10 0 -9 5 -16 11 -16 7 0 9 -11 6 -26 -5 -30
12 -104 24 -104 5 0 9 -9 9 -20 0 -11 4 -20 8 -20 11 0 13 -43 2 -50 -6 -4 -6
-18 -1 -36 5 -17 5 -62 1 -100 -4 -40 -3 -79 3 -94 5 -14 11 -38 13 -55 10
-84 16 -97 75 -158 32 -34 59 -68 59 -74 0 -10 -24 -13 -90 -13 -81 0 -97 3
-162 34 -267 125 -490 156 -636 91 -68 -31 -137 -96 -172 -164 -29 -58 -60
-183 -60 -246 0 -141 66 -199 240 -212 83 -5 93 -8 100 -29 11 -28 45 -61 90
-84 34 -18 34 -19 9 -20 -68 -1 -131 -83 -149 -195 -5 -32 -11 -60 -14 -62 -2
-3 -44 11 -93 31 -147 58 -229 58 -285 -2 -25 -26 -44 -77 -51 -132 -1 -16 -8
-24 -17 -22 -8 2 -48 6 -87 9 -67 5 -76 4 -113 -21 -22 -15 -53 -49 -70 -79
-37 -65 -40 -118 -7 -151 22 -22 23 -24 5 -35 -27 -17 -22 -49 15 -82 17 -16
44 -40 60 -53 24 -22 39 -76 21 -76 -4 0 -26 18 -50 40 -36 33 -51 40 -84 40
-31 0 -43 -5 -56 -24 -27 -42 -15 -67 53 -111 34 -22 63 -43 63 -46 0 -4 -20
-4 -43 -2 -49 6 -100 -15 -117 -46 -17 -34 -12 -76 14 -100 26 -24 103 -51
148 -51 25 0 28 -3 28 -33 0 -40 38 -96 100 -150 24 -20 40 -40 37 -44 -4 -4
-40 1 -80 10 -110 26 -146 23 -199 -17 -43 -33 -47 -34 -87 -24 -44 11 -49 19
-26 38 8 7 15 27 15 44 0 39 -32 73 -83 87 -25 7 -38 18 -45 37 -31 86 -119
107 -183 43 -34 -34 -46 -75 -32 -111 8 -20 7 -32 -4 -46 -11 -14 -13 -36 -9
-90 7 -70 6 -71 -16 -67 -21 4 -23 9 -20 44 4 43 -18 89 -43 89 -8 0 -19 16
-24 36 -16 56 -47 84 -95 84 -75 0 -133 -59 -107 -109 8 -15 4 -22 -28 -43
l-38 -25 -25 31 c-23 28 -27 30 -52 18 -17 -8 -34 -27 -43 -52 -19 -47 -28
-45 -37 9 -7 43 -27 61 -69 61 -29 0 -53 -24 -68 -69 l-12 -33 -41 41 c-66 64
-118 76 -193 42 -22 -11 -44 -28 -47 -38 -5 -15 -22 -22 -66 -31 -33 -6 -74
-20 -90 -32 l-29 -21 -15 29 c-8 16 -23 32 -32 36 -10 4 -14 13 -11 25 8 34
-19 59 -79 71 -73 15 -121 6 -155 -32 -30 -31 -49 -30 -49 3 0 25 -25 35 -54
21 -18 -8 -27 -7 -39 5 -19 19 -75 11 -108 -16 -22 -18 -24 -18 -63 0 -56 25
-116 24 -150 -2 -14 -11 -26 -28 -26 -38 0 -27 -10 -32 -34 -16 -40 29 -105
12 -167 -43 -32 -28 -36 -29 -59 -16 -38 21 -99 16 -159 -11 -53 -25 -55 -25
-97 -9 -77 29 -159 9 -289 -69 l-69 -42 -326 -5 c-333 -5 -377 -11 -364 -45
10 -24 111 -55 213 -65 53 -5 231 -10 397 -10 165 0 303 -3 307 -6 3 -3 2 -16
-2 -28 -18 -47 22 -87 104 -100 30 -5 44 -14 57 -37 26 -45 92 -70 206 -76 74
-4 108 -11 144 -29 30 -15 79 -27 136 -34 181 -20 833 -31 1812 -31 553 1
1019 0 1036 -2 19 -1 48 -18 79 -45 49 -43 111 -68 145 -57 10 3 60 -1 110
-10 108 -19 139 -14 186 27 33 29 39 31 114 29 86 -2 148 17 184 58 29 32 52
26 109 -33 72 -74 150 -94 242 -61 36 13 41 13 58 -5 14 -16 31 -20 77 -20
l60 0 0 -49 0 -49 53 -13 c90 -22 158 -18 204 14 43 30 64 33 113 16 l32 -12
-28 -23 c-20 -16 -26 -26 -19 -33 18 -18 212 -41 349 -41 177 0 227 15 295 86
59 62 80 66 157 34 57 -25 88 -17 124 32 l23 31 76 -7 c42 -3 137 -13 211 -21
158 -17 397 -20 437 -4 36 13 42 25 36 65 l-5 32 46 -5 c83 -10 133 31 120 97
-6 28 -5 29 27 25 97 -14 246 -26 377 -31 185 -8 286 5 366 47 56 29 59 29 85
13 14 -10 32 -26 40 -37 11 -15 22 -18 60 -14 25 3 64 10 86 17 39 12 42 12
104 -29 65 -42 98 -50 118 -30 9 9 20 9 40 1 15 -6 44 -13 63 -16 19 -4 55
-21 80 -39 44 -31 48 -32 150 -33 84 -1 130 -8 230 -33 97 -25 136 -31 175
-27 81 11 144 36 180 72 l34 34 58 -15 c71 -18 93 -18 117 0 14 10 23 12 32 4
16 -13 189 -38 266 -39 70 0 97 11 127 55 l23 34 32 -16 c46 -24 168 -30 185
-9 18 22 46 20 147 -9 59 -17 111 -25 164 -25 89 0 123 10 162 47 l26 25 137
-7 c115 -6 141 -11 156 -26 18 -18 50 -23 114 -19 45 3 86 28 98 60 11 29 38
40 101 40 26 0 43 -11 89 -59 84 -86 136 -91 206 -17 24 25 44 36 63 36 16 0
113 -18 216 -41 189 -41 368 -59 445 -45 19 4 52 18 72 32 35 24 41 24 85 13
37 -10 57 -9 91 0 78 23 108 24 134 7 34 -23 58 -20 86 10 26 28 35 28 139 -1
64 -18 126 -12 142 14 9 16 23 17 108 13 77 -4 103 -1 129 12 57 30 39 48 -82
78 -159 40 -211 67 -295 152 -57 58 -87 80 -140 102 -66 27 -132 77 -132 99 0
7 9 20 21 31 23 21 19 57 -12 90 -10 11 -19 32 -19 46 0 31 -29 58 -63 58 -15
0 -37 11 -51 25 -14 14 -35 25 -46 25 -12 0 -33 9 -47 20 -37 29 -97 27 -129
-5 -23 -23 -26 -24 -41 -9 -10 10 -27 14 -45 12 -24 -4 -31 0 -39 20 -5 14
-21 38 -34 54 -14 16 -25 40 -25 54 0 27 -30 51 -77 60 -18 3 -34 12 -37 19
-2 7 -21 18 -40 25 -52 17 -87 -3 -105 -58 -13 -41 -14 -42 -28 -23 -8 12 -21
21 -29 21 -8 0 -14 9 -14 21 0 59 -50 77 -112 39 -40 -24 -132 -27 -185 -5
-19 8 -37 15 -39 15 -2 0 -21 -16 -43 -35 -21 -19 -54 -41 -73 -49 -19 -8 -40
-22 -48 -30 -9 -12 -32 -16 -84 -16 -173 -1 -255 -52 -353 -217 -26 -43 -31
-59 -23 -73 16 -29 73 -69 109 -76 17 -4 34 -11 37 -15 7 -11 -10 -11 -60 0
-25 6 -47 6 -62 -1 -21 -10 -28 -7 -53 16 -26 25 -34 27 -69 21 -30 -5 -50 -1
-80 14 -28 14 -47 18 -67 13 -25 -7 -63 -4 -168 14 -38 6 -72 -9 -61 -27 3 -5
26 -20 52 -33 26 -13 55 -33 66 -44 18 -21 18 -21 -8 -28 -34 -8 -86 -68 -86
-100 0 -20 -4 -24 -17 -20 -43 14 -127 25 -147 21 -17 -4 -25 3 -41 37 -15 32
-31 48 -62 63 -24 11 -43 26 -43 33 0 22 -48 62 -75 62 -15 0 -25 6 -25 15 0
22 -38 52 -77 60 -41 7 -105 -20 -148 -64 -27 -29 -29 -30 -58 -15 -43 23
-124 28 -178 11 l-45 -14 4 29 c6 36 -20 66 -64 74 -28 5 -33 11 -36 38 -3 27
-8 32 -40 40 -28 7 -37 15 -42 37 -11 55 -110 78 -172 40 -22 -13 -36 -16 -48
-9 -9 5 -29 8 -44 6 -21 -2 -28 -9 -30 -29 -3 -22 -7 -25 -27 -21 l-25 4 26
44 c24 40 25 46 12 67 -8 12 -17 42 -21 65 -3 24 -14 54 -26 65 -20 22 -21 25
-21 52 0 31 -59 83 -110 95 -28 7 -52 16 -55 20 -3 5 2 24 11 44 14 29 15 38
4 51 -7 8 -21 15 -32 15 -16 0 -17 3 -8 21 28 50 8 109 -36 109 -15 0 -27 9
-36 27 -7 15 -24 33 -37 40 -14 6 -31 23 -38 37 -12 22 -11 25 6 21 29 -5 229
209 246 263 4 13 9 21 12 18 9 -9 133 162 133 184 0 5 3 10 8 10 9 0 42 58 42
75 0 8 6 20 13 27 27 28 48 70 43 84 -3 8 -2 12 4 9 12 -7 33 32 24 47 -4 6
-3 8 3 5 9 -6 64 102 85 168 6 17 17 45 25 63 43 96 89 285 128 518 24 149 19
720 -7 682 -5 -8 -6 2 -2 25 3 20 2 43 -3 50 -14 18 -24 49 -14 43 10 -6 10
-6 -14 94 -40 171 -115 386 -130 373 -4 -5 -5 -2 -1 5 7 12 -93 236 -101 228
-3 -2 0 -14 7 -25 6 -12 8 -21 6 -21 -6 0 -36 55 -36 65 0 3 5 3 12 -1 7 -4 8
-3 4 5 -4 6 -11 9 -16 6 -5 -3 -14 5 -21 17 -12 22 -11 22 6 8 10 -8 17 -10
14 -5 -26 53 -33 64 -39 60 -3 -2 -12 5 -19 17 -9 15 -10 18 0 13 14 -9 14 -9
-47 85 -58 91 -104 146 -118 142 -6 -2 -8 0 -4 3 9 9 -70 113 -111 148 -17 14
-28 27 -25 29 7 8 -159 161 -271 249 -152 119 -476 312 -543 322 -10 1 -31 10
-44 19 -29 19 -76 33 -97 29 -7 -1 -11 2 -8 6 3 5 -16 16 -43 24 l-49 15 27
-25z m205 -101 c4 0 5 5 1 11 -3 6 8 4 24 -5 17 -9 34 -21 38 -27 3 -6 -6 -3
-22 7 -26 17 -28 17 -15 1 16 -20 11 -21 -23 -6 -14 7 -28 19 -31 28 -5 13 -4
14 6 4 7 -7 17 -13 22 -13z m207 -96 c0 -2 -7 -4 -15 -4 -8 0 -15 4 -15 10 0
5 7 7 15 4 8 -4 15 -8 15 -10z m-35 -44 c3 -5 1 -10 -4 -10 -6 0 -11 5 -11 10
0 6 2 10 4 10 3 0 8 -4 11 -10z m-790 -10 c3 -5 2 -10 -4 -10 -5 0 -13 5 -16
10 -3 6 -2 10 4 10 5 0 13 -4 16 -10z m-15 -50 c0 -5 -7 -10 -15 -10 -8 0 -15
5 -15 10 0 6 7 10 15 10 8 0 15 -4 15 -10z m-129 -37 c-12 -8 -29 -13 -39 -11
-13 3 -10 7 13 19 36 19 55 13 26 -8z m1158 -14 c12 -12 20 -23 18 -26 -3 -2
-16 7 -30 21 -31 31 -20 35 12 5z m-2399 -29 c0 -5 -5 -10 -11 -10 -5 0 -7 5
-4 10 3 6 8 10 11 10 2 0 4 -4 4 -10z m1350 -10 c0 -5 -2 -10 -4 -10 -3 0 -8
5 -11 10 -3 6 -1 10 4 10 6 0 11 -4 11 -10z m100 -5 c0 -8 -7 -15 -15 -15 -26
0 -18 20 13 29 1 1 2 -6 2 -14z m1010 -5 c0 -5 -2 -10 -4 -10 -3 0 -8 5 -11
10 -3 6 -1 10 4 10 6 0 11 -4 11 -10z m-1366 -25 c-5 -12 -10 -13 -20 -4 -19
15 -18 19 6 19 13 0 18 -5 14 -15z m1410 -6 c-3 -5 -10 -7 -15 -3 -5 3 -7 10
-3 15 3 5 10 7 15 3 5 -3 7 -10 3 -15z m-2712 -21 c-8 -8 -9 -4 -5 13 4 13 8
18 11 10 2 -7 -1 -18 -6 -23z m2795 -20 c3 -7 -8 -2 -25 10 -17 13 -35 28 -39
34 -3 7 8 2 25 -10 17 -13 35 -28 39 -34z m-1077 32 c0 -5 -4 -10 -10 -10 -5
0 -10 5 -10 10 0 6 5 10 10 10 6 0 10 -4 10 -10z m1020 -14 c0 -3 -4 -8 -10
-11 -5 -3 -10 -1 -10 4 0 6 5 11 10 11 6 0 10 -2 10 -4z m-2770 -21 c-7 -8
-17 -12 -22 -9 -6 4 -5 10 3 15 22 14 33 10 19 -6z m1950 -1 c0 -8 -4 -12 -10
-9 -5 3 -10 10 -10 16 0 5 5 9 10 9 6 0 10 -7 10 -16z m865 -18 c7 3 16 1 20
-5 3 -6 1 -11 -4 -11 -7 0 -7 -7 1 -20 7 -11 18 -20 24 -20 6 0 19 -10 30 -22
12 -13 13 -18 4 -13 -8 5 -21 10 -29 12 -8 1 -18 9 -23 17 -5 8 -14 21 -21 28
-21 22 -42 54 -28 41 7 -6 19 -9 26 -7z m105 -46 c12 -16 17 -30 13 -30 -5 0
-19 14 -31 30 -13 17 -18 30 -13 30 5 0 19 -13 31 -30z m-140 10 c0 -5 -2 -10
-4 -10 -3 0 -8 5 -11 10 -3 6 -1 10 4 10 6 0 11 -4 11 -10z m-860 -30 c0 -5 8
-10 17 -10 9 0 13 -3 10 -7 -4 -3 0 -15 10 -25 22 -24 10 -34 -23 -19 -20 9
-30 9 -41 0 -11 -9 -17 -9 -26 0 -9 10 -8 11 8 5 19 -7 19 -6 3 12 -18 21 -9
52 11 40 6 -4 11 -2 11 3 0 6 5 11 10 11 6 0 10 -4 10 -10z m-70 -16 c0 -8
-19 -13 -24 -6 -3 5 1 9 9 9 8 0 15 -2 15 -3z m-1190 -14 c0 -5 -6 -10 -14
-10 -8 0 -18 5 -21 10 -3 6 3 10 14 10 12 0 21 -4 21 -10z m2290 -12 c20 -22
23 -40 5 -39 -6 1 -10 4 -11 9 -2 19 -17 41 -25 36 -5 -3 -9 0 -9 5 0 18 18
13 40 -11z m-105 2 c3 -5 1 -10 -4 -10 -6 0 -11 5 -11 10 0 6 2 10 4 10 3 0 8
-4 11 -10z m40 -10 c10 -11 16 -20 13 -20 -3 0 -13 9 -23 20 -10 11 -16 20
-13 20 3 0 13 -9 23 -20z m-2336 -1 c-18 -12 -92 -12 -85 0 4 5 27 9 53 9 31
0 42 -3 32 -9z m163 4 c-10 -4 -9 -10 5 -26 17 -20 17 -20 0 -14 -11 4 -30 10
-43 13 -13 3 -24 11 -24 16 0 6 7 8 15 5 8 -4 17 -2 20 3 4 6 14 10 23 9 11 0
13 -2 4 -6z m48 3 c0 -11 -19 -15 -25 -6 -3 5 1 10 9 10 9 0 16 -2 16 -4z
m1083 -3 c-7 -2 -13 -12 -14 -21 0 -14 -2 -14 -6 -2 -3 8 -11 18 -17 22 -6 4
3 7 19 7 17 0 24 -3 18 -6z m-2103 -7 c0 -2 -7 -7 -16 -10 -8 -3 -12 -2 -9 4
6 10 25 14 25 6z m1240 -16 c0 -5 -4 -10 -10 -10 -5 0 -10 5 -10 10 0 6 5 10
10 10 6 0 10 -4 10 -10z m2015 0 c3 -5 1 -10 -4 -10 -6 0 -11 5 -11 10 0 6 2
10 4 10 3 0 8 -4 11 -10z m-2185 -45 c0 -9 -6 -12 -15 -9 -8 4 -15 10 -15 15
0 5 7 9 15 9 8 0 15 -7 15 -15z m2080 0 c7 -9 8 -15 2 -15 -5 0 -12 7 -16 15
-3 8 -4 15 -2 15 2 0 9 -7 16 -15z m-3165 -39 c-18 -27 -35 -26 -35 1 0 9 6
13 14 10 8 -3 17 1 20 10 4 9 9 13 12 10 3 -3 -2 -17 -11 -31z m2448 -16 c-3
-12 -8 -19 -11 -16 -5 6 5 36 12 36 2 0 2 -9 -1 -20z m744 -2 c-3 -8 -6 -5 -6
6 -1 11 2 17 5 13 3 -3 4 -12 1 -19z m43 -16 c0 -8 -1 -13 -3 -11 -1 2 -9 12
-16 22 -12 15 -12 17 3 11 9 -3 16 -13 16 -22z m-1105 -2 c3 -5 1 -10 -4 -10
-6 0 -11 5 -11 10 0 6 2 10 4 10 3 0 8 -4 11 -10z m-1025 -4 c0 -2 -7 -6 -15
-10 -8 -3 -15 -1 -15 4 0 6 7 10 15 10 8 0 15 -2 15 -4z m2185 -26 c3 -6 -1
-7 -9 -4 -18 7 -21 14 -7 14 6 0 13 -4 16 -10z m-2035 -10 c0 -5 -4 -10 -10
-10 -5 0 -10 5 -10 10 0 6 5 10 10 10 6 0 10 -4 10 -10z m175 -10 c3 -6 -1 -7
-9 -4 -18 7 -21 14 -7 14 6 0 13 -4 16 -10z m-100 -42 c-6 -27 -5 -29 14 -23
18 5 20 3 16 -24 -2 -18 1 -31 7 -31 26 0 -3 -12 -37 -15 -30 -3 -38 1 -44 18
-6 16 -3 27 12 39 15 13 18 25 14 47 -5 24 -3 29 9 24 11 -4 13 -14 9 -35z
m2065 5 c50 -67 64 -82 72 -77 5 3 8 2 7 -3 -3 -18 2 -33 11 -33 18 0 11 33
-12 57 -12 13 -17 23 -11 23 6 0 21 -16 34 -36 18 -30 19 -38 8 -45 -21 -13
-26 -11 -49 21 -12 17 -27 30 -35 30 -7 0 -19 16 -25 35 -6 19 -19 39 -28 45
-9 5 -12 10 -5 10 6 0 21 -12 33 -27z m-35 -13 c24 -30 45 -67 45 -77 -1 -5
-9 2 -20 15 -10 13 -23 23 -27 23 -4 0 -7 6 -5 14 1 7 -3 17 -9 21 -8 4 -9 3
-5 -4 4 -8 2 -10 -7 -6 -8 3 -17 13 -20 23 -7 27 24 21 48 -9z m-965 -11 c0
-5 -7 -9 -15 -9 -9 0 -12 6 -9 15 6 15 24 11 24 -6z m-93 -4 c-2 -5 -10 -10
-17 -10 -7 0 -15 5 -17 10 -2 6 6 11 17 11 11 0 19 -5 17 -11z m-47 -5 c0 -5
-4 -10 -10 -10 -5 0 -10 5 -10 10 0 6 5 10 10 10 6 0 10 -4 10 -10z m-865 -10
c-3 -5 -2 -10 4 -10 6 0 8 -7 4 -16 -4 -10 -9 -12 -16 -5 -9 9 -3 41 8 41 4 0
3 -4 0 -10z m1063 -33 c2 -9 -1 -17 -7 -17 -6 0 -11 8 -12 18 0 10 -3 12 -6 4
-2 -6 -9 -10 -14 -6 -14 8 1 26 19 22 9 -2 18 -11 20 -21z m857 -7 c3 -5 1
-10 -4 -10 -6 0 -11 5 -11 10 0 6 2 10 4 10 3 0 8 -4 11 -10z m-2060 -10 c4
-6 10 -8 14 -6 4 3 8 -4 8 -15 1 -10 -1 -19 -5 -19 -11 1 -44 50 -33 50 5 0
13 -5 16 -10z m2195 -15 c5 -14 14 -25 19 -25 5 0 9 -9 8 -19 0 -11 -5 -17
-10 -14 -4 3 -11 -4 -14 -16 -6 -23 -23 -19 -23 5 0 8 4 13 9 10 11 -7 23 22
15 36 -4 6 -10 5 -15 -3 -4 -7 -12 -10 -16 -5 -4 5 -2 11 4 13 9 3 10 10 3 24
-8 13 -7 19 0 19 6 0 15 -11 20 -25z m-2050 5 c0 -5 -5 -10 -11 -10 -5 0 -7 5
-4 10 3 6 8 10 11 10 2 0 4 -4 4 -10z m680 0 c0 -5 -2 -10 -4 -10 -3 0 -8 5
-11 10 -3 6 -1 10 4 10 6 0 11 -4 11 -10z m80 -16 c7 -7 0 -10 -20 -10 -29 0
-37 6 -24 18 8 8 32 4 44 -8z m1198 -6 c16 -16 15 -29 -2 -22 -16 6 -30 34
-18 34 5 0 13 -5 20 -12z m-1848 -13 c-10 -12 -10 -15 1 -15 11 0 11 -2 -1
-10 -8 -5 -16 -7 -18 -5 -7 7 10 45 20 45 6 0 6 -6 -2 -15z m850 -15 c0 -5 -2
-10 -4 -10 -3 0 -8 5 -11 10 -3 6 -1 10 4 10 6 0 11 -4 11 -10z m-914 -39 c7
-13 18 -27 26 -32 10 -6 9 -11 -7 -23 -11 -9 -26 -16 -34 -16 -11 0 -8 -6 7
-20 28 -27 28 -32 -3 -24 -15 4 -25 2 -25 -5 0 -17 41 -13 63 6 18 17 20 17
43 -10 29 -34 32 -59 7 -50 -16 6 -16 5 -4 -10 7 -9 10 -17 5 -17 -4 0 -3 -5
4 -12 8 -8 9 -15 1 -25 -7 -7 -8 -13 -4 -13 4 0 2 -7 -5 -15 -15 -18 1 -20 18
-3 7 7 12 8 12 3 0 -5 11 2 24 14 14 13 30 20 36 16 9 -6 9 -10 -1 -16 -12 -8
-11 -11 1 -19 10 -6 16 -6 18 0 2 6 15 10 30 10 21 0 25 -15 4 -15 -13 0 -60
-54 -53 -62 3 -4 -1 -2 -9 4 -13 10 -18 8 -28 -8 -7 -11 -8 -19 -2 -19 5 0 10
5 10 12 0 6 3 8 8 4 7 -8 8 -13 11 -42 1 -13 5 -12 19 6 24 29 68 22 68 -10 0
-19 -2 -20 -12 -5 -16 22 -49 15 -50 -10 0 -11 6 -33 14 -48 7 -16 10 -32 6
-35 -4 -4 -9 -1 -11 6 -3 6 -9 10 -13 7 -5 -3 -7 -12 -4 -19 5 -13 -30 -33
-48 -28 -5 1 -8 -2 -8 -8 0 -5 5 -10 11 -10 6 0 8 -9 4 -22 -5 -20 -4 -21 5
-5 6 9 16 17 22 17 9 0 9 -3 0 -12 -16 -16 -15 -28 3 -28 8 0 15 -4 15 -10 0
-5 -5 -10 -10 -10 -13 0 -53 22 -62 35 -4 5 -11 6 -15 1 -4 -4 0 -13 9 -20 10
-7 15 -15 13 -18 -3 -3 6 -17 19 -31 26 -28 29 -36 27 -77 -1 -19 -3 -22 -11
-10 -5 9 -5 19 1 26 6 8 6 14 1 18 -6 3 -12 -1 -16 -9 -3 -8 -13 -15 -21 -15
-15 0 -15 1 0 16 19 19 14 40 -9 38 -9 -1 -16 4 -16 11 0 8 -8 11 -20 8 -11
-3 -20 0 -20 6 0 6 -4 11 -10 11 -5 0 -10 -8 -10 -18 0 -10 -6 -24 -12 -31
-11 -10 -9 -11 6 -5 16 6 18 4 13 -10 -5 -12 0 -20 16 -27 20 -9 19 -9 -5 -4
-22 4 -28 2 -28 -12 0 -10 -4 -14 -8 -8 -12 16 -65 19 -59 3 2 -7 11 -12 18
-10 8 1 7 -4 -4 -12 -11 -8 -26 -12 -35 -9 -10 4 -14 3 -10 -1 3 -4 13 -9 22
-10 9 -1 16 -6 16 -12 0 -9 -4 -10 -35 -13 -8 0 -12 -7 -9 -15 3 -8 1 -17 -5
-21 -6 -3 -14 2 -18 12 -4 10 -15 26 -25 35 -19 16 -19 17 4 20 22 4 22 5 -5
16 -33 14 -46 40 -26 53 9 6 10 9 2 9 -6 0 -15 -5 -18 -10 -4 -6 -10 -8 -15
-5 -4 3 -10 -1 -13 -9 -3 -7 0 -13 6 -12 7 0 12 -3 12 -9 0 -5 -10 -9 -22 -7
-17 2 -21 -1 -17 -13 5 -13 2 -15 -19 -10 -13 4 -27 3 -30 -2 -3 -5 12 -10 34
-10 21 -1 39 2 39 8 0 5 4 9 9 9 4 0 6 -11 3 -25 -4 -26 -16 -32 -27 -15 -3 5
-12 7 -20 3 -8 -3 -15 -1 -15 5 0 5 -11 7 -25 4 -15 -2 -25 0 -25 7 0 7 -4 10
-9 7 -16 -10 -18 17 -4 46 12 23 19 26 44 21 20 -4 29 -2 29 7 0 16 29 50 42
50 5 0 6 -4 3 -10 -3 -5 -1 -10 5 -10 6 0 8 11 4 28 -4 21 -3 24 5 12 6 -8 11
-13 12 -10 0 3 2 14 4 25 2 11 13 26 24 34 29 19 26 28 -9 36 -17 4 -28 11
-25 15 3 5 13 6 22 3 12 -5 14 -3 8 8 -22 37 -26 39 -61 24 -19 -8 -32 -10
-29 -6 7 12 -21 22 -40 15 -11 -4 -15 0 -15 16 0 12 -7 29 -16 37 -13 14 -17
14 -25 2 -7 -11 -9 -10 -9 4 0 10 -4 16 -9 13 -13 -8 -21 33 -11 58 4 13 15
23 24 23 14 0 14 -3 -1 -20 -17 -19 -17 -20 4 -8 12 6 25 16 28 21 3 6 14 10
24 10 10 0 24 7 31 15 14 17 45 21 35 5 -11 -17 15 -42 30 -30 9 8 14 6 19 -6
6 -16 8 -15 22 2 14 19 15 19 11 -1 -2 -14 -10 -19 -25 -18 -12 2 -22 -2 -22
-8 0 -13 73 -2 78 12 2 5 7 9 12 9 4 0 3 -11 -3 -24 -8 -16 -17 -22 -31 -18
-13 3 -17 1 -12 -6 4 -7 -2 -22 -13 -33 l-20 -22 4 21 c2 12 0 24 -5 27 -4 3
-10 -10 -12 -29 -3 -27 -1 -33 12 -28 8 2 20 11 26 18 6 8 22 16 35 18 13 3
26 5 29 6 3 2 9 2 13 1 5 -1 6 3 3 8 -4 5 -2 12 4 16 15 9 33 -44 20 -60 -8
-9 -8 -15 0 -20 5 -3 10 -2 10 4 0 6 18 20 40 31 23 12 38 25 35 30 -3 5 4 11
15 15 18 6 25 17 21 38 -1 5 8 11 19 14 16 4 18 9 9 19 -6 7 -8 18 -4 24 3 5
2 10 -4 10 -5 0 -14 -8 -20 -17 -8 -16 -11 -15 -28 6 -17 20 -70 39 -125 44
-22 2 -24 17 -2 17 9 0 27 9 41 20 14 11 32 20 39 20 7 0 19 10 25 23 12 22
12 22 -9 3 -13 -11 -30 -16 -42 -13 -16 4 -23 -1 -31 -21 -6 -15 -13 -22 -17
-16 -10 15 -72 10 -82 -6 -6 -8 -10 -10 -11 -5 -4 33 -3 41 5 53 8 11 11 10
17 -5 7 -16 8 -16 8 0 1 9 8 17 16 17 8 0 17 11 21 25 3 14 11 26 18 26 6 1
18 2 26 3 8 0 16 11 18 22 2 14 -2 21 -10 20 -7 0 -14 4 -15 9 -1 6 10 9 25 8
l27 -3 -25 11 c-14 6 -40 11 -57 10 -18 0 -33 4 -33 10 0 6 4 8 9 5 16 -11 63
13 58 28 -3 8 -1 17 6 20 22 9 41 1 53 -23z m-1948 -1 c-7 -10 -14 -17 -17
-15 -4 4 18 35 25 35 2 0 -1 -9 -8 -20z m576 -17 c-5 -24 -3 -25 12 -12 16 12
17 12 11 -3 -3 -9 -1 -18 6 -21 6 -2 3 -6 -7 -10 -9 -4 -15 -3 -11 2 3 5 -8
15 -25 23 l-30 13 22 17 c13 10 24 18 25 18 1 0 0 -12 -3 -27z m1123 -15 c0
-35 -2 -39 -12 -25 -7 9 -15 14 -18 11 -3 -4 -1 8 6 25 16 43 24 39 24 -11z
m-1177 22 c0 -5 -4 -10 -10 -10 -5 0 -10 5 -10 10 0 6 5 10 10 10 6 0 10 -4
10 -10z m3604 -6 c3 -8 2 -12 -4 -9 -6 3 -10 10 -10 16 0 14 7 11 14 -7z m-90
-20 c10 -38 -2 -67 -25 -61 -14 4 -19 0 -19 -14 0 -13 -5 -17 -16 -12 -10 3
-12 9 -6 15 5 5 7 19 4 30 -3 12 -7 15 -11 9 -5 -7 -15 -4 -29 10 -27 24 -21
39 15 37 16 -2 28 -11 34 -25 11 -31 23 -29 17 2 -5 21 2 32 23 34 4 1 10 -11
13 -25z m66 16 c0 -5 -5 -10 -11 -10 -5 0 -7 5 -4 10 3 6 8 10 11 10 2 0 4 -4
4 -10z m-3460 -10 c0 -5 -5 -10 -11 -10 -5 0 -7 5 -4 10 3 6 8 10 11 10 2 0 4
-4 4 -10z m1534 -26 c10 -26 7 -44 -8 -44 -9 0 -12 -7 -9 -19 3 -11 -2 -21
-11 -24 -13 -5 -16 1 -16 29 0 57 29 96 44 58z m1936 -61 c0 -7 7 -13 15 -13
15 0 20 -12 9 -23 -10 -10 -34 4 -34 20 0 8 -4 11 -10 8 -5 -3 -7 0 -4 8 3 8
1 18 -5 22 -6 3 -11 11 -11 17 0 6 9 3 20 -7 11 -10 20 -24 20 -32z m-3544 10
c-10 -10 -19 5 -10 18 6 11 8 11 12 0 2 -7 1 -15 -2 -18z m3498 -26 c4 4 4 -1
0 -11 -6 -15 -4 -17 7 -11 11 6 11 5 2 -5 -6 -7 -9 -19 -6 -28 4 -10 2 -13 -5
-8 -7 4 -12 16 -12 26 0 11 -9 24 -20 30 -11 6 -20 15 -20 21 0 5 10 3 23 -6
13 -8 27 -12 31 -8z m-149 -3 c24 0 30 -5 31 -22 1 -12 -3 -22 -8 -22 -6 0 -8
7 -4 15 3 9 0 15 -9 15 -9 0 -12 -6 -9 -17 5 -16 4 -16 -10 1 -13 16 -18 17
-31 6 -13 -11 -14 -15 -2 -29 19 -22 19 -55 0 -39 -8 6 -12 17 -9 23 2 7 0 17
-5 22 -14 14 0 65 15 55 6 -4 25 -7 41 -8z m-1705 -4 c0 -5 -2 -10 -4 -10 -3
0 -8 5 -11 10 -3 6 -1 10 4 10 6 0 11 -4 11 -10z m-430 -22 c0 -9 -14 -11 -45
-9 -11 1 -29 -5 -40 -13 -17 -13 -19 -18 -9 -45 11 -28 11 -29 -7 -18 -26 16
-24 42 8 71 18 17 36 24 59 23 19 -1 34 -5 34 -9z m2256 -34 c4 -14 2 -34 -3
-46 -8 -19 -9 -19 -23 -2 -13 16 -13 17 1 12 13 -5 16 -2 11 14 -4 15 -7 17
-14 6 -6 -9 -7 -6 -3 9 3 12 1 24 -5 28 -5 3 -10 11 -10 16 0 20 40 -12 46
-37z m-46 6 c0 -5 -2 -10 -4 -10 -3 0 -8 5 -11 10 -3 6 -1 10 4 10 6 0 11 -4
11 -10z m145 0 c3 -5 1 -10 -4 -10 -6 0 -11 5 -11 10 0 6 2 10 4 10 3 0 8 -4
11 -10z m-4185 -15 c-7 -9 -15 -13 -17 -11 -7 7 7 26 19 26 6 0 6 -6 -2 -15z
m2165 -6 c-10 -15 -25 -10 -19 6 4 8 10 12 15 9 5 -3 7 -10 4 -15z m1830 -9
c3 -5 2 -10 -4 -10 -5 0 -13 5 -16 10 -3 6 -2 10 4 10 5 0 13 -4 16 -10z m175
-34 c0 -12 -5 -7 -19 24 -11 24 -11 24 3 6 9 -11 16 -24 16 -30z m40 24 c13
-8 13 -10 -2 -10 -9 0 -20 5 -23 10 -8 13 5 13 25 0z m-2387 -24 c4 -10 1 -13
-7 -10 -8 3 -17 0 -21 -5 -3 -6 -11 -8 -17 -5 -8 5 19 29 38 34 1 0 4 -7 7
-14z m2001 -27 c16 -32 10 -64 -11 -51 -18 12 -25 82 -7 82 1 0 10 -14 18 -31z
m-2124 -4 c0 -8 -7 -15 -15 -15 -26 0 -18 20 13 29 1 1 2 -6 2 -14z m2461 -10
c5 3 6 -1 3 -9 -8 -22 -24 -10 -23 17 1 17 2 18 6 4 2 -9 9 -15 14 -12z m103
10 c3 -8 1 -15 -4 -15 -6 0 -10 7 -10 15 0 8 2 15 4 15 2 0 6 -7 10 -15z
m-2531 -20 c-3 -8 -9 -15 -14 -15 -10 0 -12 24 -3 33 11 11 24 -3 17 -18z m94
-1 c-9 -9 -28 6 -21 18 4 6 10 6 17 -1 6 -6 8 -13 4 -17z m-1602 6 c-3 -5 -11
-10 -16 -10 -6 0 -7 5 -4 10 3 6 11 10 16 10 6 0 7 -4 4 -10z m1435 -10 c8 -5
11 -10 5 -10 -5 0 -17 5 -25 10 -8 5 -10 10 -5 10 6 0 17 -5 25 -10z m1530
-11 c0 -6 -4 -7 -10 -4 -5 3 -10 11 -10 16 0 6 5 7 10 4 6 -3 10 -11 10 -16z
m997 -1 c-3 -8 -6 -5 -6 6 -1 11 2 17 5 13 3 -3 4 -12 1 -19z m-4325 -13 c-2
-14 -9 -22 -14 -19 -6 4 -14 0 -19 -7 -6 -10 -9 -11 -9 -1 0 11 34 52 44 52 2
0 1 -11 -2 -25z m2342 -5 c-6 -6 -10 -3 -10 10 0 13 4 16 10 10 7 -7 7 -13 0
-20z m2026 -3 c0 -5 -4 -5 -10 -2 -5 3 -10 14 -10 23 0 15 2 15 10 2 5 -8 10
-19 10 -23z m58 8 c-3 -3 -9 2 -12 12 -6 14 -5 15 5 6 7 -7 10 -15 7 -18z
m-3893 5 c-3 -5 -10 -10 -16 -10 -5 0 -9 5 -9 10 0 6 7 10 16 10 8 0 12 -4 9
-10z m315 0 c0 -5 -5 -10 -11 -10 -5 0 -7 5 -4 10 3 6 8 10 11 10 2 0 4 -4 4
-10z m885 -8 c-3 -3 -11 0 -18 7 -9 10 -8 11 6 5 10 -3 15 -9 12 -12z m-1685
4 c0 -3 -4 -8 -10 -11 -5 -3 -10 -1 -10 4 0 6 5 11 10 11 6 0 10 -2 10 -4z
m1558 -7 c10 0 12 -3 5 -5 -7 -3 -9 -12 -6 -20 3 -8 1 -14 -5 -14 -6 0 -16 -2
-24 -5 -7 -3 -19 -1 -26 4 -12 7 -12 12 0 30 7 12 19 19 26 16 8 -3 21 -5 30
-6z m-1138 -20 c0 -5 -4 -9 -10 -9 -5 0 -10 7 -10 16 0 8 5 12 10 9 6 -3 10
-10 10 -16z m170 6 c0 -8 -4 -15 -10 -15 -5 0 -7 7 -4 15 4 8 8 15 10 15 2 0
4 -7 4 -15z m500 5 c0 -5 -4 -10 -9 -10 -6 0 -13 5 -16 10 -3 6 1 10 9 10 9 0
16 -4 16 -10z m620 0 c0 -5 -5 -10 -11 -10 -5 0 -7 5 -4 10 3 6 8 10 11 10 2
0 4 -4 4 -10z m-919 -23 c-13 -13 -26 -3 -16 12 3 6 11 8 17 5 6 -4 6 -10 -1
-17z m3622 -44 c14 -36 14 -41 2 -37 -8 4 -15 14 -15 23 0 9 -7 29 -15 45 -19
35 -19 45 -1 26 7 -8 20 -34 29 -57z m-73 14 c0 -5 -4 -5 -10 -2 -5 3 -10 14
-10 23 0 15 2 15 10 2 5 -8 10 -19 10 -23z m-1126 7 c9 -24 7 -27 -9 -10 -17
17 -19 26 -6 26 5 0 12 -7 15 -16z m-3323 -21 c-8 -15 -10 -15 -11 -2 0 17 10
32 18 25 2 -3 -1 -13 -7 -23z m92 7 c-3 -11 -9 -20 -15 -20 -5 0 -4 9 2 20 6
11 12 20 14 20 2 0 2 -9 -1 -20z m407 3 c0 -10 6 -14 19 -10 14 3 18 1 14 -9
-3 -8 -9 -14 -14 -14 -5 0 -9 -8 -9 -19 0 -13 -9 -20 -30 -24 -16 -4 -30 -12
-30 -18 0 -7 -13 -25 -30 -41 -16 -15 -30 -26 -30 -23 0 7 23 48 30 55 25 22
69 107 50 95 -6 -3 -10 0 -10 7 0 8 9 14 20 15 12 1 20 -4 20 -14z m188 -18
c-3 -3 -9 2 -12 12 -6 14 -5 15 5 6 7 -7 10 -15 7 -18z m-664 -30 c-4 -8 -11
-15 -16 -15 -6 0 -5 6 2 15 7 8 14 15 16 15 2 0 1 -7 -2 -15z m4506 -38 c0
-18 -2 -19 -10 -7 -13 20 -13 43 0 35 6 -3 10 -16 10 -28z m17 1 c-3 -8 -6 -5
-6 6 -1 11 2 17 5 13 3 -3 4 -12 1 -19z m-4518 -45 c-1 -30 -4 -37 -6 -20 -6
40 -17 33 -45 -29 -20 -44 -26 -51 -31 -35 -3 12 -1 24 4 27 5 3 9 21 9 41 0
30 2 34 15 23 12 -10 15 -10 15 4 0 9 7 16 15 16 8 0 15 5 15 10 0 6 2 10 5
10 3 0 4 -21 4 -47z m4478 25 c-3 -8 -6 -5 -6 6 -1 11 2 17 5 13 3 -3 4 -12 1
-19z m-4012 -44 c-8 -6 -12 -14 -8 -17 3 -4 -8 -7 -25 -7 -19 0 -40 -8 -52
-20 -22 -22 -30 -25 -30 -10 0 6 23 33 52 61 l52 50 12 -23 c11 -19 11 -25 -1
-34z m568 -33 c10 -12 9 -14 -6 -8 -10 4 -25 7 -32 7 -18 0 -16 40 4 64 15 17
16 17 19 -15 2 -19 9 -40 15 -48z m3491 53 c9 -8 16 -25 15 -37 -1 -19 -2 -18
-14 8 -10 20 -14 24 -15 12 0 -10 5 -27 10 -38 8 -13 7 -19 0 -19 -7 0 -8 -6
0 -19 5 -11 9 -35 9 -53 l-1 -33 -10 40 c-5 22 -9 52 -9 68 0 15 -4 27 -9 27
-7 0 -7 34 -1 58 2 6 11 1 25 -14z m-1199 -4 c-3 -5 -10 -10 -16 -10 -5 0 -9
5 -9 10 0 6 7 10 16 10 8 0 12 -4 9 -10z m-950 -10 c3 -5 1 -10 -4 -10 -6 0
-11 5 -11 10 0 6 2 10 4 10 3 0 8 -4 11 -10z m125 -5 c0 -8 -4 -15 -10 -15 -5
0 -10 7 -10 15 0 8 5 15 10 15 6 0 10 -7 10 -15z m908 -9 c2 -10 -1 -23 -7
-29 -7 -7 -8 -2 -4 14 6 21 5 23 -10 10 -18 -15 -20 -12 -11 14 8 20 28 14 32
-9z m88 -4 c-9 -9 -37 8 -31 18 5 8 11 7 21 -1 8 -6 12 -14 10 -17z m-2981 8
c3 -5 1 -10 -4 -10 -6 0 -11 5 -11 10 0 6 2 10 4 10 3 0 8 -4 11 -10z m2105
-10 c0 -5 -4 -10 -10 -10 -5 0 -10 5 -10 10 0 6 5 10 10 10 6 0 10 -4 10 -10z
m1821 -7 c13 -16 12 -17 -3 -4 -10 7 -18 15 -18 17 0 8 8 3 21 -13z m-3891
-18 c0 -2 -9 -3 -19 -2 -11 0 -18 5 -15 9 4 6 34 0 34 -7z m3870 1 c0 -8 3
-21 6 -30 3 -9 2 -16 -4 -16 -5 0 -12 8 -16 18 -3 9 -9 23 -12 30 -3 7 1 12
10 12 9 0 16 -6 16 -14z m-2050 -16 c6 -11 8 -20 6 -20 -3 0 -10 9 -16 20 -6
11 -8 20 -6 20 3 0 10 -9 16 -20z m2080 -11 c0 -6 -4 -7 -10 -4 -5 3 -10 11
-10 16 0 6 5 7 10 4 6 -3 10 -11 10 -16z m-4428 -11 c-7 -7 -12 -8 -12 -2 0
14 12 26 19 19 2 -3 -1 -11 -7 -17z m1298 8 c0 -8 -5 -18 -11 -22 -14 -8 -33
11 -25 25 10 16 36 13 36 -3z m1907 8 c-3 -3 -12 -4 -19 -1 -8 3 -5 6 6 6 11
1 17 -2 13 -5z m-553 -13 c4 -5 -3 -7 -14 -4 -23 6 -26 13 -6 13 8 0 17 -4 20
-9z m1804 -18 c-1 -10 1 -24 5 -30 5 -9 3 -13 -7 -13 -11 0 -16 -9 -16 -27 -1
-34 -14 -14 -23 33 -5 28 -4 31 14 27 11 -3 19 -2 18 3 -2 14 0 24 7 24 3 0 4
-8 2 -17z m-3738 -3 c0 -5 -4 -10 -10 -10 -5 0 -10 5 -10 10 0 6 5 10 10 10 6
0 10 -4 10 -10z m80 0 c0 -5 -5 -10 -11 -10 -5 0 -7 5 -4 10 3 6 8 10 11 10 2
0 4 -4 4 -10z m160 0 c0 -5 -4 -10 -10 -10 -5 0 -10 5 -10 10 0 6 5 10 10 10
6 0 10 -4 10 -10z m930 6 c0 -3 -4 -8 -10 -11 -5 -3 -10 -1 -10 4 0 6 5 11 10
11 6 0 10 -2 10 -4z m-543 -38 c-3 -7 -5 -2 -5 12 0 14 2 19 5 13 2 -7 2 -19
0 -25z m1007 8 c-3 -9 -10 -13 -16 -10 -5 3 -4 12 3 20 15 18 22 13 13 -10z
m66 14 c0 -5 -4 -10 -10 -10 -5 0 -10 5 -10 10 0 6 5 10 10 10 6 0 10 -4 10
-10z m-2520 -4 c0 -2 -8 -10 -17 -17 -16 -13 -17 -12 -4 4 13 16 21 21 21 13z
m110 -6 c0 -5 -2 -10 -4 -10 -3 0 -8 5 -11 10 -3 6 -1 10 4 10 6 0 11 -4 11
-10z m935 0 c3 -5 -1 -10 -9 -10 -9 0 -16 5 -16 10 0 6 4 10 9 10 6 0 13 -4
16 -10z m1980 0 c3 -5 1 -10 -4 -10 -6 0 -11 5 -11 10 0 6 2 10 4 10 3 0 8 -4
11 -10z m812 -5 c8 -8 19 -13 24 -10 5 4 6 -1 3 -10 -5 -12 -9 -13 -20 -4 -8
7 -17 9 -20 6 -9 -9 5 -27 22 -27 17 0 18 -16 2 -26 -7 -4 -10 -4 -6 1 4 4 0
14 -10 21 -9 7 -17 24 -17 38 -1 30 1 31 22 11z m-2032 -5 c3 -5 1 -10 -4 -10
-6 0 -11 5 -11 10 0 6 2 10 4 10 3 0 8 -4 11 -10z m1132 -12 c7 -6 10 -14 7
-19 -3 -5 5 -9 16 -9 15 0 20 -5 16 -15 -3 -8 2 -18 11 -23 13 -8 12 -10 -5
-14 -14 -4 -19 -2 -16 7 3 6 -2 18 -11 25 -13 11 -15 9 -13 -11 2 -17 -1 -23
-12 -20 -8 2 -23 4 -32 5 -10 0 -18 4 -18 9 0 5 -7 4 -16 -4 -13 -11 -15 -11
-13 2 3 17 -21 69 -33 69 -4 0 -8 4 -8 9 0 12 111 2 127 -11z m127 -13 c-23
-17 -34 -19 -34 -5 0 11 42 31 49 24 3 -2 -4 -11 -15 -19z m146 -6 c0 -18 -18
-9 -23 12 -4 16 -3 18 9 8 8 -6 14 -15 14 -20z m-1773 -11 c-3 -8 -6 -5 -6 6
-1 11 2 17 5 13 3 -3 4 -12 1 -19z m1270 -25 c-3 -3 -11 -2 -17 2 -9 6 -9 10
1 16 14 8 27 -7 16 -18z m1776 8 c3 -14 1 -18 -9 -14 -15 6 -18 16 -7 26 9 10
10 9 16 -12z m132 9 c3 -6 -1 -7 -9 -4 -18 7 -21 14 -7 14 6 0 13 -4 16 -10z
m-3369 -25 c15 20 16 19 13 -5 -4 -35 9 -68 32 -80 10 -6 19 -17 19 -25 0 -8
5 -15 10 -15 13 0 13 6 0 31 -11 20 3 28 15 9 4 -6 11 -8 16 -5 5 4 10 1 10
-4 1 -6 3 -15 4 -21 1 -5 3 -15 4 -22 1 -9 4 -9 13 0 9 9 9 15 0 24 -15 15
-16 58 -2 58 6 0 9 -12 8 -26 -2 -15 3 -29 10 -31 7 -3 10 1 7 10 -3 7 1 20
10 27 13 11 14 10 9 -4 -4 -9 -1 -16 6 -16 7 0 10 -7 6 -16 -3 -8 -2 -12 4 -9
6 3 10 1 10 -4 0 -6 7 -11 15 -11 8 0 15 7 15 15 0 8 -4 15 -10 15 -5 0 -10 5
-10 11 0 5 5 7 10 4 6 -3 13 1 16 9 8 22 26 20 23 -1 -5 -31 20 -65 42 -58 12
4 19 2 17 -5 -5 -20 18 -22 37 -4 13 13 14 19 4 25 -7 4 -16 6 -20 3 -4 -2
-12 3 -19 11 -17 21 -28 19 -33 -7 -2 -13 -4 -6 -4 15 0 27 5 37 16 38 9 0 6
4 -9 10 -16 7 -20 13 -13 17 7 4 16 19 22 32 9 24 10 24 10 -7 1 -17 5 -34 11
-38 5 -3 6 -13 3 -23 -6 -15 -5 -16 12 -2 17 14 18 13 12 -2 -9 -24 11 -23 37
1 26 23 66 36 66 22 0 -6 -1 -13 -2 -14 -2 -2 3 -11 11 -20 12 -15 11 -17 -5
-17 -12 0 -15 -3 -8 -8 7 -4 10 -26 9 -50 -1 -23 1 -44 5 -47 4 -2 21 8 38 23
l31 28 -29 19 c-19 12 -25 22 -18 26 9 6 8 12 -1 23 -12 14 -10 16 9 16 17 0
21 -4 17 -20 -4 -15 -1 -20 11 -18 26 5 23 -50 -5 -78 -13 -13 -23 -27 -23
-32 0 -16 -29 -22 -56 -12 -25 10 -26 11 -10 35 9 14 12 25 6 25 -5 0 -10 -4
-10 -10 0 -19 -39 -30 -85 -23 -41 5 -46 8 -41 27 5 19 4 20 -8 4 -7 -10 -26
-18 -42 -18 -44 -1 -152 -26 -168 -39 -8 -6 -18 -10 -23 -9 -4 2 -32 -20 -60
-49 -28 -29 -54 -48 -57 -42 -2 5 -3 4 -2 -3 4 -16 -24 -72 -31 -64 -4 3 -11
2 -17 -3 -6 -5 -27 -12 -46 -16 -34 -6 -36 -5 -37 22 0 15 1 20 4 11 8 -31 83
-18 83 14 0 4 -13 5 -30 3 -16 -2 -30 1 -30 7 0 5 -7 8 -15 4 -8 -3 -15 -1
-15 4 0 6 4 10 9 10 5 0 3 13 -5 30 -10 18 -20 27 -29 23 -18 -6 -19 1 -3 26
15 24 -5 53 -30 44 -15 -6 -15 -5 -3 11 8 9 20 15 27 12 8 -3 20 1 27 9 11 10
17 11 26 2 8 -8 11 -7 11 6 0 10 -8 17 -21 17 -11 0 -18 4 -14 10 3 5 -6 17
-21 26 -22 15 -27 15 -35 3 -5 -8 -9 -9 -9 -3 0 6 6 17 14 23 11 9 15 9 19 -1
4 -10 7 -10 15 1 8 11 10 11 15 0 3 -8 6 -3 6 11 1 18 4 21 13 12 9 -9 15 -7
25 6 9 10 12 11 7 2 -6 -12 -5 -13 7 -3 8 7 26 9 39 6 15 -4 21 -3 16 5 -3 6
-2 13 3 17 6 3 8 12 5 19 -3 8 -1 17 5 21 7 4 11 -4 11 -19 0 -13 -6 -27 -12
-29 -7 -3 1 -3 19 0 28 5 31 3 26 -16 -6 -22 3 -26 26 -12 9 6 11 15 6 27 -5
11 -7 22 -7 27 1 4 -2 7 -6 7 -14 0 -52 36 -46 43 4 3 15 -4 25 -16 19 -22 19
-22 35 -2z m404 15 c0 -5 -7 -10 -16 -10 -10 0 -14 -5 -10 -16 4 -10 2 -13 -6
-8 -6 4 -17 -1 -24 -11 -8 -10 -16 -16 -19 -14 -6 7 54 69 66 69 5 0 9 -4 9
-10z m2878 -30 c11 -22 18 -40 17 -40 -11 0 -41 40 -43 58 -5 33 3 27 26 -18z
m52 -4 c0 -6 -7 -2 -15 8 -8 11 -15 25 -15 30 0 6 7 2 15 -8 8 -11 15 -25 15
-30z m-1905 14 c9 -7 14 -19 11 -26 -3 -7 -1 -16 4 -19 5 -3 8 -16 6 -28 -3
-12 -5 -24 -5 -26 -1 -3 -6 0 -13 7 -7 7 -26 12 -43 12 -39 0 -78 31 -69 54 3
9 10 16 15 16 5 0 9 6 9 13 0 18 63 15 85 -3z m-942 -15 c-3 -9 -8 -14 -10
-11 -3 3 -2 9 2 15 9 16 15 13 8 -4z m147 -15 c-13 -10 -31 -19 -40 -19 -8 0
-29 -2 -47 -4 -22 -3 -30 0 -26 9 3 8 8 13 11 12 4 0 9 1 12 2 3 1 17 4 33 6
15 3 37 9 50 13 32 12 36 3 7 -19z m2595 2 c-8 -8 -25 10 -19 20 4 6 9 5 15
-3 4 -7 6 -15 4 -17z m205 18 c0 -5 -5 -10 -11 -10 -5 0 -7 5 -4 10 3 6 8 10
11 10 2 0 4 -4 4 -10z m-3237 -21 c-4 -15 -8 -17 -14 -8 -8 14 -3 29 11 29 4
0 6 -9 3 -21z m3013 -15 c-3 -7 -1 -16 4 -19 6 -4 10 -12 9 -18 0 -9 -2 -8 -6
1 -2 6 -9 9 -14 6 -6 -3 -16 0 -24 6 -20 16 -19 41 0 34 12 -5 14 -2 8 12 -6
17 -5 17 11 5 9 -8 15 -20 12 -27z m271 4 c-3 -8 -6 -5 -6 6 -1 11 2 17 5 13
3 -3 4 -12 1 -19z m-4744 -3 c-3 -9 -8 -14 -10 -11 -3 3 -2 9 2 15 9 16 15 13
8 -4z m1097 7 c0 -5 -7 -9 -15 -9 -8 0 -15 4 -15 9 0 4 7 8 15 8 8 0 15 -4 15
-8z m30 -2 c0 -5 -2 -10 -4 -10 -3 0 -8 5 -11 10 -3 6 -1 10 4 10 6 0 11 -4
11 -10z m805 0 c-3 -5 -16 -10 -28 -10 -18 0 -19 2 -7 10 20 13 43 13 35 0z
m1040 0 c3 -5 2 -10 -4 -10 -5 0 -13 5 -16 10 -3 6 -2 10 4 10 5 0 13 -4 16
-10z m1695 -11 c0 -11 -4 -18 -10 -14 -5 3 -7 12 -3 20 7 21 13 19 13 -6z
m-3940 -3 c0 -3 -4 -8 -10 -11 -5 -3 -10 -1 -10 4 0 6 5 11 10 11 6 0 10 -2
10 -4z m2151 -19 c-11 -11 -41 -3 -41 11 0 5 12 7 26 4 17 -3 22 -8 15 -15z
m-2221 3 c0 -5 -2 -10 -4 -10 -3 0 -8 5 -11 10 -3 6 -1 10 4 10 6 0 11 -4 11
-10z m1386 -47 c-7 -7 -46 31 -46 46 0 6 12 -1 27 -15 14 -13 23 -27 19 -31z
m54 48 c0 -5 -11 -8 -25 -7 -33 1 -33 16 0 16 14 0 25 -4 25 -9z m878 -11 c2
-11 -5 -16 -25 -15 -15 0 -31 5 -35 10 -4 6 -8 2 -8 -7 0 -10 7 -18 15 -18 14
0 19 -10 13 -26 -2 -4 7 -10 20 -15 28 -10 30 -33 2 -24 -14 5 -18 3 -15 -8 7
-16 -26 -19 -37 -3 -5 7 -8 7 -8 -2 0 -7 -8 -21 -17 -30 -16 -16 -15 -18 20
-26 25 -6 37 -15 37 -27 0 -19 26 -33 34 -18 2 5 3 4 2 -3 -2 -7 -7 -12 -12
-11 -5 1 -14 -9 -20 -21 -9 -19 -7 -22 9 -23 27 -3 34 -12 17 -23 -11 -7 -12
-10 -2 -10 7 0 20 -6 27 -14 12 -12 12 -16 0 -26 -8 -7 -15 -19 -15 -26 0 -8
-4 -14 -10 -14 -5 0 -10 5 -10 11 0 5 -4 8 -9 5 -4 -3 -6 -17 -3 -31 3 -18 9
-24 19 -20 12 4 14 0 9 -21 -6 -21 -4 -25 8 -21 9 4 16 -1 19 -11 2 -9 5 0 8
21 3 24 1 36 -5 34 -6 -3 -11 6 -11 18 0 14 5 21 13 18 7 -3 12 3 12 16 0 14
5 19 16 14 13 -5 12 -9 -7 -29 l-22 -23 27 -12 c17 -8 26 -20 26 -36 0 -12 5
-23 10 -23 6 0 9 -3 9 -7 -1 -5 -1 -17 0 -27 1 -16 4 -17 13 -8 14 14 28 16
28 3 0 -5 -9 -11 -20 -14 -21 -5 -28 -27 -9 -27 5 0 7 -6 3 -12 -4 -7 -4 -10
1 -6 4 4 14 3 20 -2 9 -8 14 -6 19 6 5 13 9 14 20 5 9 -7 17 -8 20 -2 3 5 18
8 32 6 29 -3 49 -26 33 -36 -6 -3 0 -9 13 -12 12 -4 24 -3 26 1 11 30 20 34
45 18 17 -11 27 -14 32 -7 13 22 23 10 22 -26 -1 -20 4 -38 11 -41 7 -2 12
-19 12 -37 0 -29 -3 -32 -22 -27 -17 4 -20 2 -15 -11 4 -10 1 -18 -6 -19 -7 0
-16 -2 -22 -3 -5 -2 -16 -3 -23 -4 -7 0 -11 -5 -8 -9 3 -5 15 -8 28 -7 16 1
25 -5 28 -19 3 -12 12 -21 20 -21 26 0 33 -25 14 -46 -16 -17 -16 -22 -4 -29
11 -7 16 -5 18 5 2 9 9 12 15 9 8 -5 8 -3 0 6 -14 16 0 40 23 40 8 0 14 8 14
19 0 10 7 24 15 31 12 10 15 10 15 -3 0 -9 -4 -18 -10 -22 -5 -3 -7 -12 -4
-20 4 -8 -3 -15 -17 -17 -22 -3 -22 -3 5 -35 15 -18 36 -33 46 -33 10 0 21 -7
24 -16 4 -11 2 -15 -7 -11 -10 4 -13 -5 -13 -33 1 -32 4 -37 23 -37 13 0 20 4
17 12 -3 7 2 20 12 29 14 15 15 21 5 44 -9 18 -9 28 -2 30 14 5 14 32 0 32 -5
0 -7 -5 -3 -12 4 -7 3 -8 -4 -4 -20 12 -14 46 8 46 14 0 20 7 21 23 0 12 3 50
5 84 3 34 1 69 -4 78 -14 25 8 107 30 113 10 2 19 9 20 16 0 6 2 16 2 21 1 6
5 16 9 23 5 7 7 22 6 35 -5 37 10 51 32 31 16 -14 24 -15 44 -6 21 10 27 9 31
-3 4 -8 2 -21 -4 -28 -7 -8 -6 -16 3 -24 11 -10 18 -7 37 12 28 30 38 32 31 6
-3 -12 2 -20 16 -24 16 -4 21 0 22 16 0 12 3 16 6 10 2 -7 11 -13 19 -13 17 0
19 -29 1 -35 -17 -7 -18 -65 -1 -65 8 0 14 -9 14 -20 0 -17 2 -19 14 -8 15 14
4 38 -19 38 -8 0 -10 9 -7 25 5 27 17 33 25 13 3 -7 6 -1 6 14 1 21 5 26 18
21 13 -5 15 -2 10 16 -3 14 -1 21 6 18 26 -8 21 -117 -5 -117 -4 0 -8 -11 -8
-24 0 -14 -5 -28 -10 -31 -6 -4 -8 -10 -5 -14 2 -5 0 -23 -5 -42 -5 -18 -6
-35 -1 -38 4 -4 11 -13 15 -21 3 -8 4 -3 2 13 -4 36 13 35 20 -1 4 -19 19 -37
45 -53 45 -27 52 -43 13 -29 -19 7 -31 7 -40 -1 -16 -13 -19 -59 -3 -59 6 0 8
8 4 19 -3 11 0 23 6 27 9 5 10 2 6 -9 -4 -11 -1 -17 8 -17 8 0 15 5 15 11 0 6
9 8 23 3 30 -9 29 -7 14 -38 -18 -33 -11 -77 10 -69 19 8 52 -33 53 -64 0 -34
20 -28 27 7 3 17 10 33 16 37 6 4 8 0 4 -10 -3 -10 -2 -17 2 -17 5 0 11 7 15
15 9 24 24 17 31 -15 7 -32 22 -39 31 -15 4 8 10 15 15 15 4 0 5 -8 2 -17 -5
-12 -2 -15 10 -10 9 3 17 2 17 -2 0 -5 -6 -12 -12 -14 -8 -3 -6 -6 5 -6 9 -1
17 6 17 14 0 17 9 19 29 6 9 -6 10 -11 2 -15 -6 -4 -8 -12 -5 -18 5 -7 2 -8
-6 -3 -9 5 -10 2 -6 -11 6 -20 -5 -44 -20 -47 -5 -1 -8 -4 -8 -7 14 -48 15
-72 3 -68 -8 3 -13 14 -12 24 5 34 -7 65 -20 57 -7 -4 -16 -8 -22 -9 -5 0 -15
-2 -20 -2 -6 -1 -12 -12 -12 -24 -1 -13 -7 -24 -13 -26 -13 -5 -13 -42 0 -42
5 0 12 10 15 23 4 14 14 23 26 24 18 2 19 0 7 -15 -19 -25 -50 -52 -59 -52
-12 0 -21 38 -13 51 4 8 3 9 -4 5 -20 -12 -14 -57 8 -63 22 -6 26 -18 10 -28
-5 -3 -10 -14 -10 -23 1 -16 1 -16 11 1 5 9 16 17 24 17 17 0 14 -45 -4 -79
-12 -22 -12 -24 9 -18 19 5 21 2 18 -18 -3 -13 -1 -30 3 -37 6 -9 9 -4 9 15 0
16 4 26 10 22 6 -4 9 4 7 17 -1 18 4 24 23 26 18 2 21 0 11 -6 -7 -5 -9 -12
-5 -15 14 -8 34 18 34 43 0 5 10 19 23 31 12 12 16 19 10 15 -16 -9 -17 10 -2
20 7 4 9 24 6 50 -4 39 -2 44 15 44 14 0 18 -5 14 -17 -3 -10 -2 -24 3 -32 7
-12 14 -10 36 8 36 27 45 27 45 -5 0 -40 20 -17 21 24 0 20 3 31 6 25 2 -7 11
-13 19 -13 9 0 14 -10 13 -27 -2 -24 -2 -25 -6 -5 -8 40 -19 23 -31 -50 -11
-64 -14 -158 -6 -158 2 0 8 10 15 21 6 12 7 19 1 15 -6 -4 -8 2 -5 14 7 25 11
22 22 -18 7 -23 6 -34 -5 -43 -17 -14 -19 -42 -1 -37 6 3 17 14 23 26 6 12 14
19 17 15 4 -3 7 1 7 10 0 10 5 17 10 17 13 0 13 -4 -5 -47 -18 -43 -19 -57 -2
-47 9 6 9 5 1 -7 -15 -18 -15 -71 -1 -62 6 3 7 1 3 -6 -4 -6 -12 -9 -17 -6 -5
4 -12 -1 -15 -10 -5 -11 -10 -13 -19 -5 -9 7 -15 3 -23 -15 -6 -14 -8 -25 -3
-25 5 0 11 5 13 11 2 5 3 -12 3 -40 0 -27 -2 -47 -4 -45 -3 3 -11 -6 -18 -18
-8 -15 -12 -18 -13 -7 0 8 5 20 12 27 9 9 9 14 0 22 -6 6 -10 7 -7 3 3 -3 -2
-17 -10 -30 -9 -13 -13 -28 -10 -33 3 -6 -1 -7 -9 -4 -19 7 -21 35 -3 54 10
12 9 12 -5 1 -17 -12 -24 -86 -8 -76 11 7 4 -39 -9 -64 -15 -27 -24 -27 -16
-1 3 11 2 20 -3 20 -14 0 -23 -30 -17 -51 4 -11 2 -19 -4 -19 -11 0 -26 -38
-23 -60 2 -11 0 -10 -8 3 -6 9 -8 22 -4 29 4 7 3 8 -5 4 -6 -4 -9 -16 -6 -27
4 -11 2 -19 -4 -19 -6 0 -11 -9 -11 -21 0 -13 4 -18 13 -13 6 4 9 4 5 -1 -5
-5 -22 -10 -39 -12 -26 -2 -30 0 -25 13 6 14 4 15 -9 4 -9 -8 -12 -16 -6 -19
5 -4 3 -14 -6 -26 -16 -20 -16 -20 -9 0 6 18 5 18 -13 -2 -10 -12 -22 -19 -26
-15 -5 4 -5 1 -1 -5 4 -7 2 -13 -3 -13 -6 0 -11 5 -11 11 0 5 -5 7 -11 3 -8
-4 -7 -9 2 -15 11 -6 11 -11 2 -20 -6 -6 -9 -18 -6 -25 3 -8 -4 -30 -16 -49
-20 -35 -29 -66 -13 -51 4 4 7 11 7 14 1 4 11 23 23 42 24 39 27 50 11 50 -5
0 -7 5 -4 10 9 15 25 2 25 -21 0 -25 -58 -111 -70 -104 -5 3 -11 1 -15 -5 -3
-5 -1 -10 5 -10 6 0 8 -5 4 -11 -5 -8 -8 -8 -13 0 -5 7 -18 -1 -36 -23 l-29
-34 -58 29 c-44 22 -71 29 -116 29 -68 0 -138 -19 -180 -48 -20 -15 -32 -18
-39 -11 -15 15 -51 2 -58 -22 -6 -18 -13 -19 -83 -13 -75 6 -78 5 -112 -24
-33 -28 -36 -29 -66 -14 -42 20 -98 9 -133 -26 -24 -25 -32 -27 -111 -27 -47
0 -92 -3 -100 -8 -11 -5 -18 1 -27 22 -17 47 -90 54 -131 13 -12 -12 -30 -16
-64 -14 -53 3 -58 10 -28 37 11 10 20 31 20 46 0 25 -4 28 -46 35 -28 4 -55 2
-71 -5 -13 -6 -23 -8 -21 -3 30 70 46 93 68 98 68 14 100 26 133 48 31 21 43
24 79 18 103 -19 243 43 359 158 96 95 134 168 132 255 -1 79 -22 125 -91 197
-42 45 -53 61 -44 70 7 7 12 29 12 49 0 64 -61 100 -176 103 -24 0 -44 1 -44
1 0 0 14 27 30 59 49 96 39 164 -31 207 -21 13 -39 32 -39 42 0 12 -14 21 -45
29 -42 11 -45 14 -51 54 -7 50 -30 86 -74 119 -39 29 -128 49 -172 40 -28 -7
-30 -5 -23 11 5 11 10 39 13 64 9 87 -59 157 -143 148 l-44 -5 1 68 c0 54 -5
80 -24 119 l-25 50 24 0 c14 0 23 6 23 15 0 8 5 15 10 15 6 0 10 -4 10 -10 0
-5 4 -10 10 -10 6 0 6 10 -1 28 -10 26 -9 26 8 9 16 -16 16 -19 0 -46 -21 -36
-21 -45 -2 -38 8 4 17 2 21 -4 3 -6 12 -8 20 -5 8 3 14 -1 14 -9 0 -22 22 -30
32 -11 5 9 16 16 23 16 9 0 15 9 15 21 0 16 -5 20 -18 17 -10 -3 -24 2 -31 10
-12 13 -10 14 22 10 27 -3 34 -1 26 8 -6 8 -7 14 0 18 5 4 12 2 16 -4 4 -6 11
-7 17 -4 6 4 8 -2 4 -17 -6 -21 -5 -22 4 -6 8 12 18 16 31 12 43 -14 56 27 21
68 -14 15 -13 17 5 17 27 0 33 8 24 34 -6 14 -4 25 7 35 13 13 17 12 28 -3 7
-10 17 -15 22 -12 6 3 13 0 15 -6 3 -7 6 -1 6 15 1 15 -3 27 -7 27 -5 0 -9 7
-9 15 0 8 4 15 9 15 4 0 8 -7 8 -15 0 -8 9 -19 20 -25 17 -9 20 -8 17 12 -2
12 -9 24 -15 26 -7 2 -12 10 -12 18 0 8 -7 14 -16 14 -8 0 -12 5 -9 10 3 6 1
10 -5 10 -6 0 -8 5 -4 11 5 8 9 7 14 -1 9 -14 60 -23 60 -11 0 12 42 30 65 28
11 -1 21 -9 23 -17z m1079 -10 c0 -26 -2 -27 -13 -12 -9 11 -13 13 -14 4 0 -7
-4 -11 -10 -7 -5 3 -2 14 8 25 24 26 29 24 29 -10z m503 -15 c0 -8 5 -15 11
-15 5 0 9 9 7 20 -4 23 16 28 20 5 2 -9 -7 -27 -20 -39 l-23 -24 -2 26 c0 14
-8 31 -17 38 -23 16 -20 27 4 14 11 -6 20 -17 20 -25z m-3780 4 c0 -5 -4 -9
-10 -9 -5 0 -10 7 -10 16 0 8 5 12 10 9 6 -3 10 -10 10 -16z m3875 1 c3 -5 1
-10 -4 -10 -6 0 -11 5 -11 10 0 6 2 10 4 10 3 0 8 -4 11 -10z m-663 -34 c18
-36 9 -73 -10 -40 -10 17 -12 16 -22 -11 -7 -16 -14 -25 -17 -18 -2 7 0 21 6
32 6 11 11 31 11 45 0 35 12 32 32 -8z m-3192 0 c0 -14 -7 -31 -15 -39 -8 -8
-11 -17 -8 -21 4 -3 1 -6 -6 -6 -8 0 -10 8 -5 23 22 70 34 86 34 43z m3040 3
c0 -6 -4 -7 -10 -4 -5 3 -10 11 -10 16 0 6 5 7 10 4 6 -3 10 -11 10 -16z
m-450 1 c0 -5 -2 -10 -4 -10 -3 0 -8 5 -11 10 -3 6 -1 10 4 10 6 0 11 -4 11
-10z m-2410 -20 c12 -8 9 -10 -12 -10 -16 0 -28 5 -28 10 0 13 20 13 40 0z
m1820 0 c0 -5 -5 -10 -11 -10 -5 0 -7 5 -4 10 3 6 8 10 11 10 2 0 4 -4 4 -10z
m-1034 -15 c-11 -8 -22 -12 -25 -9 -6 6 19 24 34 24 6 -1 1 -7 -9 -15z m2964
-4 c0 -11 -4 -23 -10 -26 -6 -4 -10 5 -10 19 0 14 5 26 10 26 6 0 10 -9 10
-19z m-3762 -26 c-3 -3 -9 2 -12 12 -6 14 -5 15 5 6 7 -7 10 -15 7 -18z m3619
3 c-3 -8 -6 -5 -6 6 -1 11 2 17 5 13 3 -3 4 -12 1 -19z m-4611 -66 c-13 -12
-18 9 -10 45 l8 38 4 -39 c2 -21 1 -41 -2 -44z m4581 56 c-3 -8 -6 -5 -6 6 -1
11 2 17 5 13 3 -3 4 -12 1 -19z m84 -22 c5 -6 9 -14 9 -20 0 -5 -7 -1 -15 10
-8 10 -14 28 -14 39 l1 20 5 -20 c3 -11 9 -24 14 -29z m57 -6 c-2 -17 -5 -15
-14 15 -10 32 -10 35 3 22 8 -8 13 -24 11 -37z m81 -8 c1 -7 -3 -10 -9 -7 -5
3 -10 18 -9 33 0 24 1 25 9 7 5 -11 9 -26 9 -33z m-1802 21 c2 -6 -8 -10 -22
-10 -26 0 -34 12 -12 20 16 7 30 3 34 -10z m1620 -25 c-3 -7 -5 -2 -5 12 0 14
2 19 5 13 2 -7 2 -19 0 -25z m-3744 2 c16 -19 16 -20 -6 -20 -16 0 -23 6 -23
20 0 11 3 20 6 20 3 0 13 -9 23 -20z m3295 -28 c2 -23 -2 -34 -19 -42 -18 -10
-24 -9 -31 3 -5 9 -15 23 -23 31 -19 18 -19 26 -1 26 8 0 16 7 20 15 10 27 51
2 54 -33z m-1823 8 c-4 -13 -1 -22 9 -26 9 -3 16 -10 16 -14 0 -10 -62 11 -71
24 -4 4 -17 5 -30 1 -21 -7 -22 -7 -6 9 10 10 26 15 41 12 14 -3 28 0 31 5 11
16 17 10 10 -11z m2265 -6 c0 -4 -7 -3 -16 0 -10 4 -13 2 -8 -6 5 -7 9 -31 11
-53 2 -22 6 -46 8 -52 2 -7 -2 -13 -9 -13 -9 0 -13 13 -13 43 0 23 -3 57 -8
76 -8 32 -7 33 14 22 11 -7 21 -14 21 -17z m-3742 -24 c6 0 9 -7 6 -15 -4 -8
-10 -15 -15 -15 -5 0 -9 7 -9 15 0 8 -4 15 -9 15 -5 0 -12 8 -15 17 -6 16 -6
16 12 0 10 -9 24 -17 30 -17z m3879 8 c-3 -8 -6 -5 -6 6 -1 11 2 17 5 13 3 -3
4 -12 1 -19z m-2900 6 c-3 -3 -12 -4 -19 -1 -8 3 -5 6 6 6 11 1 17 -2 13 -5z
m-1800 -36 c-3 -8 -6 -5 -6 6 -1 11 2 17 5 13 3 -3 4 -12 1 -19z m707 15 c4
-5 13 -8 19 -8 7 0 11 -14 10 -35 -2 -32 -1 -33 9 -12 6 12 18 22 26 22 11 0
12 -3 3 -14 -7 -8 -8 -17 -4 -19 13 -8 36 9 29 21 -4 6 2 10 14 9 12 -1 19 -6
16 -14 -3 -8 3 -13 16 -13 16 0 18 -3 9 -13 -7 -9 -8 -24 -2 -43 4 -16 6 -35
3 -43 -3 -10 1 -12 17 -8 11 3 19 1 15 -4 -3 -5 0 -9 7 -9 8 0 8 -4 -1 -15 -7
-8 -19 -15 -26 -15 -8 0 -11 6 -8 15 4 8 1 15 -6 15 -6 0 -9 -4 -5 -9 3 -5 0
-13 -6 -16 -5 -4 -8 -13 -5 -20 2 -7 -1 -23 -8 -37 -7 -13 -11 -29 -8 -36 2
-6 -2 -12 -8 -12 -9 0 -11 -10 -6 -30 3 -18 1 -30 -5 -30 -6 0 -7 -5 -3 -11 7
-12 -12 -29 -34 -29 -9 0 -9 8 3 31 15 28 15 32 1 48 -9 10 -16 30 -16 44 0
20 -5 27 -20 27 -11 0 -23 7 -26 15 -4 8 -10 15 -16 15 -5 0 -6 -4 -3 -10 3
-5 -1 -10 -9 -10 -14 0 -20 12 -17 33 0 4 -5 7 -12 7 -15 0 -16 27 -3 48 4 7
2 19 -4 27 -8 10 -9 15 -2 15 6 0 9 6 6 14 -3 7 2 16 11 20 11 4 14 2 9 -7 -5
-9 -4 -9 6 0 7 7 13 33 13 58 0 44 6 53 21 38z m2266 -17 c0 -3 -4 -8 -10 -11
-5 -3 -10 -1 -10 4 0 6 5 11 10 11 6 0 10 -2 10 -4z m1460 -6 c0 -5 -5 -10
-11 -10 -5 0 -7 5 -4 10 3 6 8 10 11 10 2 0 4 -4 4 -10z m190 -11 c0 -6 -4 -7
-10 -4 -5 3 -10 11 -10 16 0 6 5 7 10 4 6 -3 10 -11 10 -16z m-125 -9 c3 -5 1
-10 -4 -10 -6 0 -11 5 -11 10 0 6 2 10 4 10 3 0 8 -4 11 -10z m161 -17 c-10
-10 -19 5 -10 18 6 11 8 11 12 0 2 -7 1 -15 -2 -18z m-3646 -9 c0 -12 -2 -12
-14 -2 -8 7 -12 16 -9 21 7 11 23 -2 23 -19z m-70 -24 c0 -5 -4 -10 -10 -10
-5 0 -10 5 -10 10 0 6 5 10 10 10 6 0 10 -4 10 -10z m3684 -24 c-3 -15 -8 -25
-11 -23 -2 3 -1 17 3 31 3 15 8 25 11 23 2 -3 1 -17 -3 -31z m-594 5 c0 -12
-42 -42 -49 -36 -5 6 29 45 41 45 4 0 8 -4 8 -9z m-3005 -11 c3 -6 -1 -7 -9
-4 -18 7 -21 14 -7 14 6 0 13 -4 16 -10z m3552 -42 c-3 -8 -6 -5 -6 6 -1 11 2
17 5 13 3 -3 4 -12 1 -19z m-617 -13 c0 -8 -4 -15 -10 -15 -5 0 -10 7 -10 15
0 8 5 15 10 15 6 0 10 -7 10 -15z m-3801 -12 c-7 -10 -15 -20 -16 -22 -2 -2
-3 5 -3 17 0 14 6 22 16 22 14 0 15 -3 3 -17z m935 -4 c-3 -5 5 -9 18 -9 22
-1 22 -1 3 -12 -30 -16 -31 -18 -16 -27 9 -6 1 -8 -20 -6 -19 2 -42 3 -52 4
-10 1 -15 6 -12 11 4 6 -7 10 -24 10 -28 0 -46 18 -21 21 6 1 16 2 23 3 6 1
21 -4 33 -11 23 -14 34 -9 34 18 0 12 6 16 20 12 11 -3 17 -9 14 -14z m2816 0
c0 -5 -4 -9 -10 -9 -5 0 -10 7 -10 16 0 8 5 12 10 9 6 -3 10 -10 10 -16z m100
11 c0 -5 -2 -10 -4 -10 -3 0 -8 5 -11 10 -3 6 -1 10 4 10 6 0 11 -4 11 -10z
m665 -35 c6 -30 6 -30 -10 4 -17 38 -19 49 -6 36 5 -6 12 -23 16 -40z m-1585
25 c0 -5 -2 -10 -4 -10 -3 0 -8 5 -11 10 -3 6 -1 10 4 10 6 0 11 -4 11 -10z
m1530 -26 c0 -35 -15 -30 -16 6 -1 16 3 27 7 24 5 -3 9 -16 9 -30z m-3680 6
c0 -5 -7 -10 -16 -10 -8 0 -12 5 -9 10 3 6 10 10 16 10 5 0 9 -4 9 -10z m3031
-23 c-8 -8 -11 -7 -11 4 0 20 13 34 18 19 3 -7 -1 -17 -7 -23z m623 -16 c14
-15 15 -24 7 -38 -9 -16 -11 -14 -17 14 -3 18 -10 30 -15 27 -5 -3 -9 0 -9 5
0 17 15 13 34 -8z m123 -18 c-3 -10 -5 -4 -5 12 0 17 2 24 5 18 2 -7 2 -21 0
-30z m70 -10 c-3 -10 -5 -2 -5 17 0 19 2 27 5 18 2 -10 2 -26 0 -35z m-4078
-24 c-17 -10 -24 4 -14 29 6 16 7 16 17 -2 8 -14 7 -21 -3 -27z m3967 21 c0
-11 -4 -20 -8 -20 -10 0 -11 24 -1 33 9 9 9 10 9 -13z m-3686 -20 c0 -5 -4
-10 -10 -10 -5 0 -10 5 -10 10 0 6 5 10 10 10 6 0 10 -4 10 -10z m3631 -13
c-10 -9 -11 -8 -5 6 3 10 9 15 12 12 3 -3 0 -11 -7 -18z m-1218 -37 c-3 -12
-8 -19 -11 -16 -5 6 5 36 12 36 2 0 2 -9 -1 -20z m-2463 1 c0 -5 -7 -14 -15
-21 -16 -14 -18 -10 -9 14 6 17 24 22 24 7z m3027 -21 c1 -11 9 -27 18 -36 25
-25 15 -47 -22 -50 -30 -2 -33 0 -33 26 0 16 5 32 11 35 6 4 8 13 5 20 -3 8 0
16 7 19 7 2 12 5 12 5 1 1 1 -8 2 -19z m-3327 -4 c0 -8 -4 -18 -10 -21 -5 -3
-10 3 -10 14 0 12 5 21 10 21 6 0 10 -6 10 -14z m4000 -16 c0 -5 -2 -10 -4
-10 -3 0 -8 5 -11 10 -3 6 -1 10 4 10 6 0 11 -4 11 -10z m-3983 -42 c-3 -8 -6
-5 -6 6 -1 11 2 17 5 13 3 -3 4 -12 1 -19z m2743 12 c0 -5 -4 -10 -10 -10 -5
0 -10 5 -10 10 0 6 5 10 10 10 6 0 10 -4 10 -10z m1242 -35 c2 -19 0 -35 -4
-35 -4 0 -9 8 -9 18 -1 9 -3 27 -4 39 -1 12 1 20 5 18 4 -3 10 -21 12 -40z
m-3902 25 c0 -5 -4 -10 -10 -10 -5 0 -10 5 -10 10 0 6 5 10 10 10 6 0 10 -4
10 -10z m3977 -27 c-3 -10 -5 -4 -5 12 0 17 2 24 5 18 2 -7 2 -21 0 -30z
m-687 7 c-6 -3 -8 -14 -4 -23 4 -11 1 -17 -8 -17 -10 0 -13 9 -10 29 3 21 8
28 19 24 10 -4 11 -8 3 -13z m510 3 c17 -12 25 -13 28 -5 2 7 8 12 14 12 6 0
7 -8 3 -17 -4 -10 -9 -34 -12 -53 -8 -62 -9 -66 -26 -90 -9 -14 -17 -30 -17
-38 0 -7 -4 -11 -9 -8 -5 3 -8 -2 -7 -12 0 -9 -5 -17 -11 -17 -7 0 -13 5 -14
10 0 6 -9 13 -20 17 -11 4 -17 12 -14 18 3 5 1 10 -5 10 -6 0 -9 14 -7 35 3
19 0 35 -4 35 -5 0 -9 5 -9 11 0 6 9 9 19 6 15 -4 18 -1 13 12 -5 14 -4 14 11
2 20 -16 21 -11 6 22 -9 20 -8 28 7 45 24 25 24 26 54 5z m-980 -20 c0 -10 -7
-27 -15 -37 -12 -16 -15 -17 -15 -4 0 9 -3 24 -6 32 -5 12 -2 15 12 9 12 -4
15 -3 10 5 -4 7 -2 12 3 12 6 0 11 -8 11 -17z m-2575 -12 c3 -5 1 -12 -5 -16
-5 -3 -10 1 -10 9 0 18 6 21 15 7z m2510 -1 c3 -5 1 -10 -4 -10 -6 0 -11 5
-11 10 0 6 2 10 4 10 3 0 8 -4 11 -10z m1252 -37 c-3 -10 -5 -2 -5 17 0 19 2
27 5 18 2 -10 2 -26 0 -35z m-4690 15 c-3 -8 -6 -5 -6 6 -1 11 2 17 5 13 3 -3
4 -12 1 -19z m3453 -13 c0 -8 -4 -15 -9 -15 -5 0 -11 7 -15 15 -3 9 0 15 9 15
8 0 15 -7 15 -15z m1133 -62 c4 -6 -2 -22 -13 -34 -11 -14 -19 -18 -20 -11 0
7 -5 10 -10 7 -6 -3 -8 -16 -4 -29 3 -14 -1 -27 -10 -35 -14 -12 -16 -10 -16
8 0 11 4 21 9 21 5 0 7 9 4 20 -3 12 0 20 7 20 7 0 10 6 7 14 -3 7 -1 18 3 22
5 5 11 21 14 34 2 14 5 30 6 35 1 6 5 -6 9 -25 4 -20 10 -41 14 -47z m34 55
c-3 -8 -6 -5 -6 6 -1 11 2 17 5 13 3 -3 4 -12 1 -19z m100 -25 c-3 -10 -5 -4
-5 12 0 17 2 24 5 18 2 -7 2 -21 0 -30z m-4687 13 c0 -3 -4 -8 -10 -11 -5 -3
-10 -1 -10 4 0 6 5 11 10 11 6 0 10 -2 10 -4z m3985 -16 c3 -5 2 -10 -4 -10
-5 0 -13 5 -16 10 -3 6 -2 10 4 10 5 0 13 -4 16 -10z m-658 -22 c-3 -8 -6 -5
-6 6 -1 11 2 17 5 13 3 -3 4 -12 1 -19z m1274 -25 c-10 -17 -10 -16 -11 3 0
23 13 41 18 25 2 -6 -1 -18 -7 -28z m76 5 c-3 -8 -6 -5 -6 6 -1 11 2 17 5 13
3 -3 4 -12 1 -19z m-647 -64 c0 -30 -32 -49 -60 -34 -24 13 -26 47 -4 71 15
17 18 17 40 2 14 -9 24 -25 24 -39z m-660 12 c0 -3 -4 -8 -10 -11 -5 -3 -10
-1 -10 4 0 6 5 11 10 11 6 0 10 -2 10 -4z m690 -26 c0 -5 -4 -10 -10 -10 -5 0
-10 5 -10 10 0 6 5 10 10 10 6 0 10 -4 10 -10z m470 -14 c0 -19 -5 -24 -21
-23 -18 1 -18 3 -5 13 9 6 16 16 16 23 0 6 2 11 5 11 3 0 5 -11 5 -24z m-110
-13 c0 -21 -36 -123 -43 -123 -4 0 -5 5 -2 10 3 6 2 10 -4 10 -14 0 -24 -38
-17 -68 5 -20 4 -23 -4 -12 -7 12 -10 8 -10 -15 0 -23 3 -27 10 -15 8 13 10
12 10 -2 0 -10 -6 -18 -14 -18 -19 0 -40 26 -27 34 5 4 13 27 17 51 3 25 10
48 15 51 5 3 7 10 4 15 -4 5 0 9 8 9 18 0 29 24 20 47 -4 11 -3 14 5 9 7 -4
12 -1 12 8 0 9 5 16 10 16 6 0 10 -3 10 -7z m-207 -37 c4 -10 1 -13 -9 -9 -15
6 -19 23 -5 23 5 0 11 -7 14 -14z m241 -10 c-6 -15 -24 -23 -24 -11 0 8 24 34
28 30 1 -1 0 -10 -4 -19z m66 13 c0 -5 -4 -8 -9 -5 -5 3 -11 -9 -14 -27 -2
-18 0 -35 7 -39 8 -5 8 -10 -1 -19 -8 -8 -12 -6 -16 7 -5 15 -3 71 2 92 2 8
31 0 31 -9z m-1090 -8 c0 -6 -4 -13 -10 -16 -5 -3 -10 1 -10 9 0 9 5 16 10 16
6 0 10 -4 10 -9z m1177 -83 c-3 -7 -5 -2 -5 12 0 14 2 19 5 13 2 -7 2 -19 0
-25z m-463 -89 c-3 -5 -10 -7 -15 -3 -5 3 -7 10 -3 15 3 5 10 7 15 3 5 -3 7
-10 3 -15z m433 -11 c-3 -8 -6 -5 -6 6 -1 11 2 17 5 13 3 -3 4 -12 1 -19z
m-120 -20 c-3 -7 -5 -2 -5 12 0 14 2 19 5 13 2 -7 2 -19 0 -25z m-17 -98 c0
-5 -5 -10 -11 -10 -5 0 -7 5 -4 10 3 6 8 10 11 10 2 0 4 -4 4 -10z m-20 -35
c0 -5 4 -3 10 5 5 8 12 12 15 8 3 -3 -2 -14 -12 -23 -11 -11 -18 -14 -21 -6
-2 6 -7 9 -12 6 -4 -3 -10 1 -13 8 -3 8 3 13 14 13 11 0 19 -5 19 -11z m70
-69 c0 -3 -4 -8 -10 -11 -5 -3 -10 -1 -10 4 0 6 5 11 10 11 6 0 10 -2 10 -4z
m41 -49 c-10 -9 -11 -8 -5 6 3 10 9 15 12 12 3 -3 0 -11 -7 -18z m-30 -78 c-5
-13 -10 -19 -10 -12 -1 15 10 45 15 40 3 -2 0 -15 -5 -28z m-383 -551 c-2 -6
-10 -14 -16 -16 -7 -2 -10 2 -6 12 7 18 28 22 22 4z m26 -30 c-3 -4 -9 -8 -15
-8 -5 0 -9 4 -9 8 0 5 7 9 15 9 8 0 12 -4 9 -9z"/>
<path d="M24965 5081 c-3 -5 -1 -12 5 -16 5 -3 10 1 10 9 0 18 -6 21 -15 7z"/>
<path d="M25150 4789 c0 -5 5 -7 10 -4 6 3 10 8 10 11 0 2 -4 4 -10 4 -5 0
-10 -5 -10 -11z"/>
<path d="M25020 4778 c0 -4 7 -8 15 -8 8 0 15 4 15 8 0 5 -7 9 -15 9 -8 0 -15
-4 -15 -9z"/>
<path d="M25075 4780 c-3 -5 1 -10 9 -10 9 0 16 5 16 10 0 6 -4 10 -9 10 -6 0
-13 -4 -16 -10z"/>
<path d="M25130 4730 c0 -11 4 -20 9 -20 5 0 7 9 4 20 -3 11 -7 20 -9 20 -2 0
-4 -9 -4 -20z"/>
<path d="M24840 4585 c0 -9 -4 -14 -9 -10 -5 3 -12 1 -15 -4 -3 -5 -16 -7 -28
-3 -13 3 -19 1 -15 -5 4 -6 25 -13 47 -15 36 -3 40 -1 40 19 0 12 -4 25 -10
28 -5 3 -10 -1 -10 -10z"/>
<path d="M25190 4559 c0 -5 5 -7 10 -4 6 3 10 8 10 11 0 2 -4 4 -10 4 -5 0
-10 -5 -10 -11z"/>
<path d="M24795 4530 c-3 -5 -1 -10 4 -10 6 0 10 -3 10 -7 -4 -22 3 -33 19
-32 10 0 12 3 5 6 -7 2 -13 13 -13 23 0 22 -16 35 -25 20z"/>
<path d="M24880 4485 c0 -8 2 -15 4 -15 2 0 6 7 10 15 3 8 1 15 -4 15 -6 0
-10 -7 -10 -15z"/>
<path d="M24960 4485 c0 -8 2 -15 4 -15 2 0 6 7 10 15 3 8 1 15 -4 15 -6 0
-10 -7 -10 -15z"/>
<path d="M25220 4439 c0 -5 5 -7 10 -4 6 3 10 8 10 11 0 2 -4 4 -10 4 -5 0
-10 -5 -10 -11z"/>
<path d="M24990 4390 c0 -5 6 -10 14 -10 8 0 18 5 21 10 3 6 -3 10 -14 10 -12
0 -21 -4 -21 -10z"/>
<path d="M24988 4343 c7 -3 16 -2 19 1 4 3 -2 6 -13 5 -11 0 -14 -3 -6 -6z"/>
<path d="M24957 4296 l-27 -24 28 -4 c25 -3 28 -1 27 24 0 15 0 28 0 28 0 0
-12 -11 -28 -24z"/>
<path d="M25032 4244 c-7 -8 -8 -14 -3 -14 10 0 25 19 20 25 -2 1 -10 -3 -17
-11z"/>
<path d="M27160 4892 c0 -18 5 -32 10 -32 6 0 8 11 4 28 -10 39 -14 40 -14 4z"/>
<path d="M24520 4580 c0 -5 5 -10 11 -10 5 0 7 5 4 10 -3 6 -8 10 -11 10 -2 0
-4 -4 -4 -10z"/>
<path d="M24023 4090 c4 -17 2 -20 -16 -15 -19 5 -20 5 -4 -5 9 -6 22 -8 27
-5 14 8 13 45 -1 45 -6 0 -9 -9 -6 -20z"/>
<path d="M24489 4083 c-13 -16 -12 -17 4 -4 16 13 21 21 13 21 -2 0 -10 -8
-17 -17z"/>
<path d="M24090 4074 c0 -13 -8 -24 -20 -27 -11 -3 -18 -1 -14 4 7 11 -7 11
-25 0 -11 -7 -8 -16 17 -42 17 -18 35 -29 39 -25 4 5 2 11 -4 13 -7 3 -13 9
-13 14 0 6 5 7 12 3 7 -5 8 -3 3 6 -5 8 -2 18 9 26 14 10 15 17 7 31 -10 17
-10 17 -11 -3z"/>
<path d="M24341 4054 c0 -11 3 -14 6 -6 3 7 2 16 -1 19 -3 4 -6 -2 -5 -13z"/>
<path d="M23960 4037 c0 -21 37 -51 45 -37 4 6 -2 20 -14 31 -24 22 -31 24
-31 6z"/>
<path d="M24510 4030 c0 -5 5 -10 11 -10 5 0 7 5 4 10 -3 6 -8 10 -11 10 -2 0
-4 -4 -4 -10z"/>
<path d="M24106 4012 c-3 -5 1 -18 9 -28 14 -18 14 -18 15 3 0 23 -15 39 -24
25z"/>
<path d="M23936 3966 c21 -15 30 -14 19 3 -3 6 -14 11 -23 11 -13 0 -13 -2 4
-14z"/>
<path d="M23893 3926 c-6 -8 -9 -17 -6 -20 7 -7 33 13 33 25 0 13 -13 10 -27
-5z"/>
<path d="M25598 3833 c7 -3 16 -2 19 1 4 3 -2 6 -13 5 -11 0 -14 -3 -6 -6z"/>
<path d="M25795 3770 c3 -5 8 -10 11 -10 2 0 4 5 4 10 0 6 -5 10 -11 10 -5 0
-7 -4 -4 -10z"/>
<path d="M25781 3634 c0 -11 3 -14 6 -6 3 7 2 16 -1 19 -3 4 -6 -2 -5 -13z"/>
<path d="M26685 3590 c3 -5 8 -10 11 -10 2 0 4 5 4 10 0 6 -5 10 -11 10 -5 0
-7 -4 -4 -10z"/>
<path d="M25880 3569 c0 -5 5 -7 10 -4 6 3 10 8 10 11 0 2 -4 4 -10 4 -5 0
-10 -5 -10 -11z"/>
<path d="M26445 3540 c4 -6 11 -8 16 -5 14 9 11 15 -7 15 -8 0 -12 -5 -9 -10z"/>
<path d="M26710 3520 c0 -5 5 -10 10 -10 6 0 10 5 10 10 0 6 -4 10 -10 10 -5
0 -10 -4 -10 -10z"/>
<path d="M26580 3505 c0 -8 5 -15 10 -15 6 0 10 7 10 15 0 8 -4 15 -10 15 -5
0 -10 -7 -10 -15z"/>
<path d="M26660 3449 c0 -5 5 -7 10 -4 6 3 10 8 10 11 0 2 -4 4 -10 4 -5 0
-10 -5 -10 -11z"/>
<path d="M26580 3179 c0 -6 -7 -8 -16 -5 -9 4 -22 2 -28 -2 -18 -14 -57 -22
-50 -10 4 6 1 8 -7 6 -8 -3 -22 -1 -31 4 -24 12 -22 -1 5 -35 13 -17 33 -29
50 -30 15 -1 27 -7 27 -12 1 -23 -36 -75 -51 -75 -12 0 -16 -6 -12 -20 4 -14
-1 -22 -18 -29 -16 -5 -26 -5 -31 2 -4 6 -10 8 -15 3 -4 -4 0 -12 10 -18 14
-8 16 -13 6 -24 -8 -10 -8 -14 0 -14 20 0 12 -30 -11 -40 -23 -10 -23 -10 2
-7 14 1 28 9 32 17 5 10 7 7 7 -10 1 -19 4 -21 13 -12 21 21 32 13 12 -9 -18
-20 -18 -21 1 -34 11 -8 27 -20 35 -27 8 -8 28 -20 44 -28 16 -8 31 -23 34
-32 2 -10 7 -18 11 -18 9 0 36 32 46 55 7 17 9 18 12 4 5 -19 46 -34 51 -19 6
16 20 11 27 -9 3 -12 15 -18 31 -18 17 0 22 3 16 9 -6 6 -8 18 -5 27 5 13 2
12 -18 -4 -18 -15 -20 -16 -10 -2 7 9 11 18 7 18 -3 1 -12 2 -18 3 -7 1 -12
10 -10 21 2 11 3 45 3 75 -1 56 -22 90 -57 90 -8 0 -14 5 -14 10 0 6 7 10 15
10 8 0 15 -4 15 -9 0 -5 9 -11 20 -14 26 -7 26 16 0 34 -14 10 -17 18 -10 29
8 13 11 12 23 -4 18 -24 32 -5 17 23 -13 25 -13 32 1 29 6 -2 13 2 16 8 5 15
-39 26 -48 12 -12 -19 -51 30 -44 55 4 12 3 17 -2 11 -10 -15 -54 -21 -70 -11
-7 4 -10 14 -6 22 3 8 2 15 -1 15 -3 0 -6 -5 -6 -11z m-25 -29 c3 -5 -1 -10
-9 -10 -9 0 -16 5 -16 10 0 6 4 10 9 10 6 0 13 -4 16 -10z m125 -206 c0 -2 -9
-4 -21 -4 -11 0 -18 4 -14 10 5 8 35 3 35 -6z m-159 -57 c-10 -9 -11 -8 -5 6
3 10 9 15 12 12 3 -3 0 -11 -7 -18z m69 -43 c0 -8 -4 -12 -10 -9 -5 3 -10 10
-10 16 0 5 5 9 10 9 6 0 10 -7 10 -16z"/>
<path d="M26894 3146 c-8 -22 3 -33 18 -18 9 9 9 15 0 24 -9 9 -13 7 -18 -6z"/>
<path d="M26865 3080 c-15 -17 -16 -20 -3 -20 9 0 19 7 22 16 10 25 1 27 -19
4z"/>
<path d="M26980 3059 c0 -5 5 -7 10 -4 6 3 10 8 10 11 0 2 -4 4 -10 4 -5 0
-10 -5 -10 -11z"/>
<path d="M27036 3058 c-2 -7 -7 -24 -10 -38 -5 -24 -5 -24 10 -5 8 11 19 20
24 20 20 0 20 14 1 25 -16 8 -22 8 -25 -2z"/>
<path d="M26900 3045 c0 -8 2 -15 4 -15 2 0 6 7 10 15 3 8 1 15 -4 15 -6 0
-10 -7 -10 -15z"/>
<path d="M26936 3035 c-9 -25 -8 -28 10 -21 12 5 15 2 10 -11 -6 -14 -4 -15 4
-7 14 14 10 46 -6 51 -6 2 -14 -3 -18 -12z"/>
<path d="M26884 2956 c-3 -8 -14 -13 -25 -11 -22 4 -23 1 -9 -26 7 -13 7 -19
0 -19 -5 0 -10 -7 -10 -15 0 -8 5 -15 10 -15 6 0 9 -5 8 -11 -2 -6 2 -13 9
-16 7 -3 15 10 19 32 5 27 10 35 22 30 12 -4 12 -3 3 9 -6 7 -9 20 -5 29 3 8
1 18 -5 22 -6 3 -14 0 -17 -9z"/>
<path d="M26903 2850 c-3 -11 -9 -20 -13 -20 -5 0 0 -17 10 -37 16 -33 16 -40
4 -54 -16 -18 -18 -39 -4 -39 6 0 10 8 10 18 0 10 6 19 13 20 6 1 23 3 37 4
19 2 25 9 25 28 0 19 -5 24 -20 22 -18 -2 -21 3 -20 33 1 24 -2 32 -9 25 -15
-15 -29 -12 -22 5 3 8 3 15 0 15 -3 0 -8 -9 -11 -20z m52 -80 c3 -5 1 -10 -4
-10 -6 0 -11 5 -11 10 0 6 2 10 4 10 3 0 8 -4 11 -10z"/>
<path d="M26960 2839 c0 -5 5 -7 10 -4 6 3 10 8 10 11 0 2 -4 4 -10 4 -5 0
-10 -5 -10 -11z"/>
<path d="M26405 2829 c-11 -17 -2 -18 19 -3 17 12 17 14 4 14 -9 0 -20 -5 -23
-11z"/>
<path d="M26445 2798 c3 -31 3 -31 19 -16 10 9 11 17 4 26 -16 19 -26 14 -23
-10z"/>
<path d="M27021 2804 c0 -11 3 -14 6 -6 3 7 2 16 -1 19 -3 4 -6 -2 -5 -13z"/>
<path d="M26841 2743 c0 -25 1 -26 9 -8 12 27 12 35 0 35 -5 0 -10 -12 -9 -27z"/>
<path d="M26495 2740 c-4 -6 -14 -9 -23 -8 -10 2 -17 -4 -17 -12 0 -19 73 -34
91 -19 22 18 16 32 -10 25 -14 -3 -28 -2 -31 4 -3 6 1 7 9 4 9 -3 16 -1 16 5
0 14 -27 14 -35 1z"/>
<path d="M27207 2711 c-4 -17 -3 -21 5 -13 5 5 8 16 6 23 -3 8 -7 3 -11 -10z"/>
<path d="M27255 2720 c3 -5 10 -10 16 -10 5 0 9 5 9 10 0 6 -7 10 -16 10 -8 0
-12 -4 -9 -10z"/>
<path d="M26753 2707 c-2 -4 -13 -5 -23 -2 -17 5 -18 3 -10 -26 12 -41 11 -41
41 -15 35 30 42 52 17 52 -11 0 -22 -4 -25 -9z"/>
<path d="M27351 2624 c0 -11 3 -14 6 -6 3 7 2 16 -1 19 -3 4 -6 -2 -5 -13z"/>
<path d="M27310 2619 c0 -5 5 -7 10 -4 6 3 10 8 10 11 0 2 -4 4 -10 4 -5 0
-10 -5 -10 -11z"/>
<path d="M26689 2603 c-13 -16 -12 -17 4 -4 9 7 17 15 17 17 0 8 -8 3 -21 -13z"/>
<path d="M27196 2448 c-22 -30 -22 -55 -1 -38 9 7 13 15 11 18 -3 2 -1 13 5
23 14 26 3 24 -15 -3z"/>
<path d="M27225 2330 c3 -5 8 -10 11 -10 2 0 4 5 4 10 0 6 -5 10 -11 10 -5 0
-7 -4 -4 -10z"/>
<path d="M27156 2285 c-9 -26 -7 -32 5 -12 6 10 9 21 6 23 -2 3 -7 -2 -11 -11z"/>
<path d="M27175 2260 c-3 -6 1 -7 9 -4 18 7 21 14 7 14 -6 0 -13 -4 -16 -10z"/>
<path d="M27135 2240 c-3 -5 -1 -10 4 -10 6 0 11 5 11 10 0 6 -2 10 -4 10 -3
0 -8 -4 -11 -10z"/>
<path d="M27047 2210 c-3 -11 -3 -20 -1 -20 2 0 8 9 14 20 6 11 7 20 2 20 -6
0 -12 -9 -15 -20z"/>
<path d="M26970 2070 c-8 -15 -8 -20 1 -20 7 0 8 -4 2 -12 -5 -7 -15 -26 -22
-43 l-12 -30 23 23 c15 15 23 35 24 62 1 45 -1 48 -16 20z"/>
<path d="M26965 1970 c-10 -11 -14 -20 -9 -20 5 0 15 9 22 20 7 11 11 20 9 20
-2 0 -12 -9 -22 -20z"/>
<path d="M26912 1895 c-15 -32 -2 -32 21 0 14 19 15 25 4 25 -8 0 -19 -11 -25
-25z"/>
<path d="M26865 1901 c-3 -5 -1 -12 5 -16 5 -3 10 1 10 9 0 18 -6 21 -15 7z"/>
<path d="M26925 3929 c-9 -14 7 -39 25 -39 13 0 16 6 13 23 -4 22 -28 32 -38
16z"/>
<path d="M23650 3805 c-7 -9 -11 -18 -8 -20 7 -8 38 5 38 15 0 17 -18 19 -30
5z"/>
<path d="M23556 3755 c-3 -9 -6 -22 -5 -28 0 -7 5 -1 10 12 5 13 8 26 5 28 -2
2 -6 -3 -10 -12z"/>
<path d="M27477 3313 c-11 -10 -8 -43 3 -43 6 0 10 11 10 25 0 26 -2 29 -13
18z"/>
<path d="M26921 3241 c-12 -8 -12 -11 1 -24 18 -18 44 -6 35 17 -7 18 -16 20
-36 7z"/>
<path d="M25745 5970 c3 -5 8 -10 11 -10 2 0 4 5 4 10 0 6 -5 10 -11 10 -5 0
-7 -4 -4 -10z"/>
<path d="M25960 5940 c0 -5 5 -10 11 -10 5 0 7 5 4 10 -3 6 -8 10 -11 10 -2 0
-4 -4 -4 -10z"/>
<path d="M25795 5890 c-3 -5 -1 -10 4 -10 6 0 11 5 11 10 0 6 -2 10 -4 10 -3
0 -8 -4 -11 -10z"/>
<path d="M25920 5883 c0 -4 5 -15 10 -23 8 -13 10 -13 10 2 0 9 -4 20 -10 23
-5 3 -10 3 -10 -2z"/>
<path d="M26015 5870 c3 -5 11 -10 16 -10 6 0 7 5 4 10 -3 6 -11 10 -16 10 -6
0 -7 -4 -4 -10z"/>
<path d="M26112 5787 c18 -18 60 -29 55 -14 -2 7 -12 11 -21 11 -9 -1 -16 2
-16 7 0 5 -7 9 -16 9 -13 0 -13 -2 -2 -13z"/>
<path d="M24657 5784 c-3 -4 4 -15 16 -25 12 -11 18 -19 12 -18 -21 3 -23 -2
-15 -38 10 -42 6 -55 -15 -47 -8 3 -11 12 -8 21 4 11 2 14 -5 9 -7 -4 -12 -2
-12 3 0 6 5 11 10 11 6 0 10 13 10 29 0 29 -1 29 -36 19 -25 -7 -40 -6 -47 1
-17 17 -30 13 -24 -8 4 -17 0 -20 -33 -18 -23 1 -37 5 -34 12 3 5 -4 -1 -15
-14 -12 -13 -21 -20 -21 -17 0 4 -16 -5 -35 -20 -19 -14 -32 -31 -29 -36 3 -5
-2 -8 -12 -6 -14 2 -18 -2 -16 -16 2 -11 -1 -15 -7 -11 -6 3 -11 2 -11 -4 0
-5 5 -13 10 -16 6 -3 10 -1 10 4 0 21 28 11 34 -11 9 -34 8 -38 -9 -38 -8 0
-15 5 -15 10 0 7 -6 7 -20 0 -11 -6 -20 -16 -20 -22 0 -9 3 -9 12 0 16 16 28
15 28 -3 0 -8 4 -15 9 -15 5 0 11 7 15 15 3 8 13 15 22 15 9 0 28 8 42 19 23
15 92 34 92 24 0 -7 -78 -41 -84 -36 -3 4 -6 -1 -6 -10 0 -9 -13 -23 -30 -32
-38 -20 -38 -24 3 -21 19 1 31 6 30 14 -2 6 2 12 8 12 7 0 20 10 30 21 17 20
22 21 65 10 26 -7 50 -8 53 -4 15 21 119 70 171 82 19 4 49 4 65 -1 38 -11
145 -26 145 -21 0 15 -23 43 -31 38 -14 -9 -11 5 5 21 16 16 30 19 22 5 -8
-12 4 -41 16 -41 5 0 6 6 2 13 -5 9 -4 9 5 1 10 -9 10 -17 2 -32 -8 -16 -7
-21 6 -27 11 -3 22 0 29 9 6 9 15 16 19 16 4 0 2 -7 -6 -16 -10 -13 -10 -17 2
-25 11 -7 9 -9 -8 -9 -17 0 -23 -6 -23 -21 0 -16 5 -20 20 -16 11 3 20 1 20
-4 0 -5 6 -9 14 -9 16 0 28 23 32 59 2 13 8 29 15 35 9 8 10 4 5 -16 -3 -15
-2 -30 4 -33 5 -3 10 -1 10 4 0 6 7 11 15 11 20 0 19 17 -2 30 -14 9 -11 10
15 5 35 -7 38 -4 20 28 -19 37 -61 62 -57 35 4 -30 -2 -49 -12 -42 -6 3 -8 16
-5 29 6 24 -9 43 -40 49 -11 2 -31 7 -45 11 -24 6 -26 4 -22 -18 3 -14 1 -27
-5 -31 -5 -3 -7 5 -4 19 2 14 0 25 -7 25 -5 0 -8 7 -5 15 5 11 -1 15 -18 15
-14 0 -28 3 -31 7 -12 12 -56 9 -61 -4 -3 -7 -14 -13 -25 -13 -11 0 -23 -4
-26 -10 -3 -5 -17 -10 -31 -10 -13 0 -24 -4 -24 -10 0 -5 -5 -10 -12 -10 -6 0
-4 7 5 18 21 23 21 32 2 32 -8 0 -15 -4 -15 -10 0 -20 -19 -9 -22 13 -2 17
-10 22 -31 22 -15 0 -31 6 -36 13 -4 7 -10 9 -14 6z m73 -54 c0 -11 -4 -20 -9
-20 -5 0 -7 9 -4 20 3 11 7 20 9 20 2 0 4 -9 4 -20z m-119 -29 c-7 -5 -17 -15
-22 -22 -7 -11 -9 -9 -9 6 0 14 7 21 22 22 16 2 19 0 9 -6z m-181 -51 c0 -5
-4 -10 -10 -10 -5 0 -10 5 -10 10 0 6 5 10 10 10 6 0 10 -4 10 -10z m325 -8
c-3 -3 -11 0 -18 7 -9 10 -8 11 6 5 10 -3 15 -9 12 -12z m425 -12 c0 -5 -4
-10 -10 -10 -5 0 -10 5 -10 10 0 6 5 10 10 10 6 0 10 -4 10 -10z m-753 -14
c-3 -7 0 -19 6 -25 8 -8 8 -14 -1 -23 -6 -6 -15 -8 -19 -4 -4 4 -1 11 7 16 12
8 10 10 -7 10 -25 0 -26 1 -17 24 3 9 13 16 21 16 9 0 13 -6 10 -14z m153 4
c0 -5 -5 -10 -11 -10 -5 0 -7 5 -4 10 3 6 8 10 11 10 2 0 4 -4 4 -10z"/>
<path d="M24975 5769 c-4 -6 -5 -12 -2 -15 2 -3 7 2 10 11 7 17 1 20 -8 4z"/>
<path d="M25258 5773 c7 -3 16 -2 19 1 4 3 -2 6 -13 5 -11 0 -14 -3 -6 -6z"/>
<path d="M25056 5757 c3 -10 9 -15 12 -12 3 3 0 11 -7 18 -10 9 -11 8 -5 -6z"/>
<path d="M25800 5755 c-10 -13 -9 -15 8 -15 15 0 20 5 16 15 -4 8 -7 15 -9 15
-1 0 -8 -7 -15 -15z"/>
<path d="M26208 5763 c7 -3 16 -2 19 1 4 3 -2 6 -13 5 -11 0 -14 -3 -6 -6z"/>
<path d="M25220 5749 c0 -5 5 -7 10 -4 6 3 10 8 10 11 0 2 -4 4 -10 4 -5 0
-10 -5 -10 -11z"/>
<path d="M25185 5740 c4 -6 11 -8 16 -5 14 9 11 15 -7 15 -8 0 -12 -5 -9 -10z"/>
<path d="M26230 5746 c0 -2 9 -6 20 -9 11 -3 18 -1 14 4 -5 9 -34 13 -34 5z"/>
<path d="M26297 5720 c10 -11 19 -20 21 -20 1 0 -2 9 -8 20 -6 11 -15 20 -20
20 -6 0 -2 -9 7 -20z"/>
<path d="M24260 5715 c-11 -13 -10 -14 4 -9 9 3 16 10 16 15 0 13 -6 11 -20
-6z"/>
<path d="M26180 5709 c15 -26 90 -61 106 -48 6 5 14 5 19 1 4 -4 3 3 -3 14
-13 26 -70 54 -106 54 -24 0 -26 -2 -16 -21z"/>
<path d="M24369 5710 c11 -6 7 -16 -22 -44 -20 -20 -37 -38 -37 -42 0 -11 58
41 73 66 15 25 15 26 -6 27 -16 2 -18 0 -8 -7z"/>
<path d="M25120 5705 c0 -16 16 -20 24 -6 3 5 -1 11 -9 15 -9 3 -15 0 -15 -9z"/>
<path d="M25190 5686 c0 -2 9 -6 20 -9 11 -3 20 -1 20 4 0 5 -9 9 -20 9 -11 0
-20 -2 -20 -4z"/>
<path d="M26130 5681 c0 -14 18 -23 31 -15 8 4 7 9 -2 15 -18 11 -29 11 -29 0z"/>
<path d="M24228 5667 c-11 -4 -18 -10 -15 -13 3 -3 15 -1 26 6 12 6 21 7 21 2
0 -11 48 -3 55 8 6 10 -57 8 -87 -3z"/>
<path d="M26025 5670 c4 -6 11 -8 16 -5 14 9 11 15 -7 15 -8 0 -12 -5 -9 -10z"/>
<path d="M26347 5659 c4 -14 8 -15 18 -6 14 13 12 20 -9 23 -9 1 -12 -5 -9
-17z"/>
<path d="M24185 5640 c-3 -5 -1 -10 4 -10 6 0 11 5 11 10 0 6 -2 10 -4 10 -3
0 -8 -4 -11 -10z"/>
<path d="M26200 5625 c0 -10 9 -15 27 -15 29 0 29 2 -4 19 -19 10 -23 9 -23
-4z"/>
<path d="M25950 5620 c-12 -8 -12 -10 -1 -10 8 0 11 -7 8 -20 -6 -23 8 -27 16
-5 4 8 1 17 -5 21 -7 4 -6 9 3 15 8 5 10 9 4 9 -5 0 -17 -5 -25 -10z"/>
<path d="M26310 5615 c0 -19 11 -24 34 -15 20 7 16 12 -16 23 -12 4 -18 1 -18
-8z"/>
<path d="M26495 5591 c-3 -5 2 -11 10 -15 8 -3 17 -1 20 3 3 5 -2 11 -10 15
-8 3 -17 1 -20 -3z"/>
<path d="M26347 5569 c-3 -10 -1 -19 4 -19 6 0 9 -7 7 -16 -2 -9 4 -18 12 -20
8 -1 30 -8 48 -16 27 -10 34 -10 41 1 6 9 11 10 15 2 4 -6 1 -11 -6 -11 -7 0
-3 -7 9 -15 13 -9 19 -22 16 -34 -4 -14 2 -20 24 -24 55 -11 64 -13 63 -20 0
-4 0 -12 0 -18 0 -8 -6 -7 -17 2 -15 11 -14 10 1 -9 20 -23 28 -28 24 -13 -3
11 9 12 40 4 12 -3 22 -9 22 -14 0 -10 65 -79 75 -79 8 0 6 28 -2 32 -15 6
-54 56 -57 71 -3 22 -26 47 -45 48 -10 0 -11 2 -3 6 6 2 12 9 12 15 0 6 -7 7
-15 4 -9 -3 -15 -1 -14 7 4 31 -1 40 -15 28 -11 -9 -15 -8 -20 4 -3 9 -11 15
-18 13 -7 -1 -28 6 -46 16 -19 9 -36 15 -39 12 -3 -3 -17 6 -30 20 -13 14 -36
29 -52 34 -24 7 -30 5 -34 -11z m197 -138 c-2 -3 -12 3 -22 13 -16 17 -16 18
5 5 12 -7 20 -15 17 -18z m50 3 c3 -8 2 -12 -4 -9 -6 3 -10 10 -10 16 0 14 7
11 14 -7z"/>
<path d="M26471 5553 c-13 -14 -12 -15 11 -10 18 5 28 2 32 -8 3 -8 12 -15 21
-15 18 0 19 7 2 24 -22 22 -51 26 -66 9z"/>
<path d="M24715 5508 c-66 -37 -26 -99 42 -66 41 20 52 46 29 64 -24 17 -44
17 -71 2z"/>
<path d="M25560 5516 c0 -2 7 -6 15 -10 8 -3 15 -1 15 4 0 6 -7 10 -15 10 -8
0 -15 -2 -15 -4z"/>
<path d="M26208 5493 c7 -3 16 -2 19 1 4 3 -2 6 -13 5 -11 0 -14 -3 -6 -6z"/>
<path d="M24530 5479 c0 -5 5 -7 10 -4 6 3 10 8 10 11 0 2 -4 4 -10 4 -5 0
-10 -5 -10 -11z"/>
<path d="M26142 5468 c7 -15 15 -23 17 -17 2 6 -4 18 -13 27 -15 15 -15 15 -4
-10z"/>
<path d="M26170 5481 c0 -6 4 -13 10 -16 6 -3 7 1 4 9 -7 18 -14 21 -14 7z"/>
<path d="M26270 5481 c0 -5 7 -12 16 -15 14 -5 15 -4 4 9 -14 17 -20 19 -20 6z"/>
<path d="M24372 5469 c-15 -5 -20 -13 -16 -21 6 -9 9 -9 12 0 2 7 7 10 12 7 4
-3 13 2 20 10 14 17 6 18 -28 4z"/>
<path d="M24485 5469 c-4 -6 -4 -13 -1 -16 3 -4 6 -1 6 5 0 6 8 13 18 15 15 4
15 5 0 6 -9 0 -20 -4 -23 -10z"/>
<path d="M26071 5463 c0 -10 3 -13 5 -7 3 7 15 10 27 7 18 -4 19 -3 7 6 -23
16 -40 13 -39 -6z"/>
<path d="M26367 5461 c23 -22 39 -28 28 -11 -3 5 -16 15 -28 21 l-22 11 22
-21z"/>
<path d="M26420 5469 c0 -3 9 -14 20 -24 15 -13 17 -22 9 -36 -11 -22 8 -59
31 -59 13 1 13 2 0 13 -17 13 -24 57 -9 57 5 0 9 -4 9 -10 0 -5 4 -10 9 -10 5
0 1 18 -10 39 -13 28 -25 39 -39 38 -11 -1 -20 -4 -20 -8z"/>
<path d="M24016 5445 c4 -8 8 -15 10 -15 2 0 4 7 4 15 0 8 -4 15 -10 15 -5 0
-7 -7 -4 -15z"/>
<path d="M24825 5449 c-9 -14 -7 -15 46 -23 35 -5 48 -3 52 7 4 10 -5 12 -34
10 -21 -2 -39 2 -39 7 0 13 -17 13 -25 -1z"/>
<path d="M26019 5458 c-6 -21 -5 -38 2 -38 5 0 9 9 9 20 0 16 -7 28 -11 18z"/>
<path d="M26235 5450 c3 -5 8 -10 11 -10 2 0 4 5 4 10 0 6 -5 10 -11 10 -5 0
-7 -4 -4 -10z"/>
<path d="M24940 5430 c0 -5 5 -10 11 -10 5 0 7 -5 3 -12 -4 -7 -3 -8 5 -4 9 6
9 11 0 22 -14 17 -19 18 -19 4z"/>
<path d="M25330 5429 c0 -5 5 -7 10 -4 6 3 10 8 10 11 0 2 -4 4 -10 4 -5 0
-10 -5 -10 -11z"/>
<path d="M26418 5433 c7 -3 16 -2 19 1 4 3 -2 6 -13 5 -11 0 -14 -3 -6 -6z"/>
<path d="M26120 5416 c0 -22 11 -46 21 -46 5 0 9 7 9 16 0 8 -4 12 -10 9 -5
-3 -10 1 -10 9 0 10 6 13 15 10 8 -4 15 -12 15 -19 0 -7 6 -15 14 -18 11 -5
11 0 -2 24 -18 30 -52 40 -52 15z"/>
<path d="M26009 5389 c32 -31 51 -31 51 1 0 13 -5 17 -19 13 -10 -3 -22 0 -25
6 -4 6 -14 11 -22 11 -11 0 -5 -10 15 -31z"/>
<path d="M25226 5397 c5 -13 54 -42 54 -32 0 2 -13 13 -30 25 -20 14 -28 16
-24 7z"/>
<path d="M25395 5401 c-3 -5 2 -12 11 -15 8 -3 12 -10 9 -16 -3 -5 -2 -10 4
-10 19 0 20 17 1 33 -11 9 -22 12 -25 8z"/>
<path d="M25480 5395 c0 -8 4 -15 10 -15 5 0 7 7 4 15 -4 8 -8 15 -10 15 -2 0
-4 -7 -4 -15z"/>
<path d="M26075 5390 c-3 -5 -1 -10 4 -10 6 0 11 5 11 10 0 6 -2 10 -4 10 -3
0 -8 -4 -11 -10z"/>
<path d="M26510 5395 c0 -2 7 -8 15 -15 12 -10 15 -10 15 2 0 8 -7 15 -15 15
-8 0 -15 -1 -15 -2z"/>
<path d="M25300 5379 c0 -5 5 -7 10 -4 6 3 10 8 10 11 0 2 -4 4 -10 4 -5 0
-10 -5 -10 -11z"/>
<path d="M25978 5383 c-22 -6 -24 -33 -2 -33 8 0 12 5 9 10 -3 6 -2 10 4 10 5
0 12 -8 14 -17 3 -11 5 -7 6 10 0 15 -2 26 -6 26 -5 -1 -16 -3 -25 -6z"/>
<path d="M26097 5372 c-5 -7 -13 -10 -18 -7 -15 10 -36 -18 -31 -40 5 -19 6
-18 12 4 5 24 6 24 24 5 14 -13 21 -15 24 -6 2 7 8 10 13 6 5 -3 9 0 9 5 0 6
-4 11 -9 11 -5 0 -11 8 -13 18 -3 12 -6 14 -11 4z"/>
<path d="M26206 5365 c-13 -10 -15 -15 -6 -15 7 0 22 -8 33 -17 20 -17 20 -17
14 0 -4 10 -7 25 -7 33 0 18 -10 17 -34 -1z"/>
<path d="M24250 5350 c0 -5 7 -10 16 -10 8 0 12 5 9 10 -3 6 -10 10 -16 10 -5
0 -9 -4 -9 -10z"/>
<path d="M25540 5350 c8 -5 22 -10 30 -10 13 0 13 1 0 10 -8 5 -22 10 -30 10
-13 0 -13 -1 0 -10z"/>
<path d="M26150 5350 c-9 -6 -10 -10 -3 -10 6 0 15 5 18 10 8 12 4 12 -15 0z"/>
<path d="M26260 5350 c0 -5 5 -10 11 -10 5 0 7 5 4 10 -3 6 -8 10 -11 10 -2 0
-4 -4 -4 -10z"/>
<path d="M26610 5352 c0 -5 7 -15 15 -22 8 -7 15 -8 15 -2 0 5 -7 15 -15 22
-8 7 -15 8 -15 2z"/>
<path d="M26481 5331 c6 -17 69 -55 69 -42 0 6 7 8 15 5 8 -4 15 -1 15 4 0 14
-11 20 -50 27 -18 3 -38 9 -43 12 -5 3 -8 0 -6 -6z"/>
<path d="M36320 5329 c-333 -37 -658 -153 -902 -321 -406 -279 -671 -709 -782
-1268 -39 -199 -50 -310 -49 -540 1 -411 67 -734 214 -1040 249 -518 677 -855
1264 -993 221 -52 324 -62 665 -62 285 0 327 3 444 24 157 28 264 58 414 117
248 96 417 203 595 374 113 108 169 182 223 296 58 122 77 200 72 294 -8 128
-67 212 -188 269 -49 23 -68 26 -165 26 -144 0 -184 -18 -320 -145 -446 -413
-678 -545 -1003 -569 -232 -18 -414 13 -587 98 -155 77 -251 165 -366 336
-121 181 -199 447 -199 684 l0 63 143 -6 c78 -3 576 -8 1107 -12 1036 -6 1088
-4 1265 45 214 60 301 136 356 311 22 69 24 92 24 290 -1 200 -3 223 -29 334
-38 163 -76 268 -151 418 -109 218 -236 387 -395 525 -287 249 -623 396 -1023
448 -129 16 -495 19 -627 4z m498 -734 c205 -43 375 -153 509 -329 116 -154
194 -397 216 -675 l4 -54 -696 6 c-383 4 -807 7 -943 7 l-248 0 0 34 c0 58 38
236 75 352 123 390 377 625 726 674 83 11 269 4 357 -15z"/>
<path d="M26023 5311 c-1 -10 5 -22 13 -25 17 -7 18 5 1 28 -12 16 -13 16 -14
-3z"/>
<path d="M26195 5321 c-6 -11 9 -23 19 -14 9 9 7 23 -3 23 -6 0 -12 -4 -16 -9z"/>
<path d="M25940 5310 c0 -5 5 -10 11 -10 5 0 7 5 4 10 -3 6 -8 10 -11 10 -2 0
-4 -4 -4 -10z"/>
<path d="M26230 5299 c0 -5 5 -7 10 -4 6 3 10 8 10 11 0 2 -4 4 -10 4 -5 0
-10 -5 -10 -11z"/>
<path d="M26750 5294 c0 -5 7 -19 15 -30 8 -10 15 -14 15 -8 0 5 -7 19 -15 30
-8 10 -15 14 -15 8z"/>
<path d="M25030 5279 c0 -5 6 -8 13 -6 6 1 11 -6 11 -15 -2 -23 12 -14 19 11
3 14 -1 19 -19 19 -13 0 -24 -4 -24 -9z"/>
<path d="M26500 5282 c0 -4 9 -13 20 -20 22 -13 27 -3 8 16 -14 14 -28 16 -28
4z"/>
<path d="M26023 5238 c-10 -11 -7 -17 10 -27 12 -8 19 -10 15 -6 -4 5 0 14 10
22 15 13 15 14 0 9 -9 -3 -18 0 -20 6 -2 6 -8 5 -15 -4z"/>
<path d="M26477 5229 c4 -13 9 -17 15 -11 11 11 3 32 -12 32 -4 0 -6 -9 -3
-21z"/>
<path d="M25110 5225 c0 -8 4 -15 10 -15 5 0 7 7 4 15 -4 8 -8 15 -10 15 -2 0
-4 -7 -4 -15z"/>
<path d="M25334 5226 c-19 -15 -19 -15 2 -13 11 0 21 7 21 14 0 16 1 16 -23
-1z"/>
<path d="M12383 5219 c-366 -33 -627 -138 -798 -321 -203 -216 -297 -492 -297
-868 0 -238 40 -458 109 -593 65 -130 207 -295 317 -370 91 -62 272 -143 382
-172 243 -64 292 -67 1084 -75 639 -6 732 -9 785 -24 143 -40 231 -111 275
-223 28 -72 39 -251 21 -353 -15 -84 -66 -176 -119 -217 -48 -37 -140 -69
-237 -83 -43 -6 -544 -10 -1322 -10 l-1253 0 0 -405 0 -405 1243 0 c736 0
1289 4 1357 10 233 20 392 61 555 143 422 211 609 573 592 1147 -8 267 -54
465 -143 613 -103 168 -337 338 -574 415 -244 79 -303 84 -1150 92 -708 6
-738 7 -812 28 -97 27 -130 44 -188 98 -159 149 -157 490 4 662 48 51 104 84
189 110 46 15 187 17 1285 19 l1232 4 0 394 0 395 -1222 -1 c-673 -1 -1264 -5
-1315 -10z"/>
<path d="M19895 5219 c-548 -56 -807 -313 -880 -872 -13 -102 -15 -336 -15
-1683 l0 -1564 410 0 410 0 0 1408 c0 872 4 1440 10 1494 25 216 120 346 300
410 l65 23 808 3 807 3 0 394 0 395 -917 -1 c-505 -1 -954 -5 -998 -10z"/>
<path d="M25146 5215 c4 -8 8 -15 10 -15 2 0 4 7 4 15 0 8 -4 15 -10 15 -5 0
-7 -7 -4 -15z"/>
<path d="M26821 5203 c8 -10 22 -27 32 -37 9 -11 17 -23 17 -28 0 -4 4 -8 9
-8 17 0 -2 43 -28 67 -31 27 -49 30 -30 6z"/>
<path d="M26421 5173 c12 -15 12 -16 -6 -10 -18 7 -19 6 -3 -6 10 -8 15 -16
12 -19 -3 -4 -1 -9 5 -13 7 -3 11 3 11 15 0 12 5 18 10 15 17 -11 11 7 -7 21
-25 19 -38 17 -22 -3z"/>
<path d="M26586 5182 c-3 -5 1 -9 9 -9 8 0 15 4 15 9 0 4 -4 8 -9 8 -6 0 -12
-4 -15 -8z"/>
<path d="M25441 5158 c7 -12 21 -18 44 -18 49 0 44 13 -9 26 -41 9 -44 9 -35
-8z"/>
<path d="M26060 5170 c0 -5 5 -10 10 -10 6 0 10 5 10 10 0 6 -4 10 -10 10 -5
0 -10 -4 -10 -10z"/>
<path d="M26475 5170 c-3 -5 -1 -10 4 -10 6 0 11 5 11 10 0 6 -2 10 -4 10 -3
0 -8 -4 -11 -10z"/>
<path d="M25230 5150 c0 -24 15 -27 24 -4 9 22 8 24 -9 24 -8 0 -15 -9 -15
-20z"/>
<path d="M26820 5162 c0 -5 7 -15 15 -22 8 -7 15 -8 15 -2 0 5 -7 15 -15 22
-8 7 -15 8 -15 2z"/>
<path d="M25283 5143 c-3 -10 -8 -21 -10 -25 -2 -4 3 -5 11 -2 9 3 16 15 16
25 0 24 -9 25 -17 2z"/>
<path d="M23766 5141 c-4 -5 -2 -12 3 -15 5 -4 12 -2 15 3 4 5 2 12 -3 15 -5
4 -12 2 -15 -3z"/>
<path d="M25116 5135 c4 -8 13 -15 21 -15 12 0 12 2 -1 15 -8 8 -17 15 -20 15
-3 0 -3 -7 0 -15z"/>
<path d="M26741 5129 c-1 -9 9 -24 22 -35 22 -19 22 -19 6 1 -9 11 -19 27 -22
35 -5 13 -6 13 -6 -1z"/>
<path d="M25087 5123 c-4 -3 -7 -11 -7 -17 0 -6 5 -5 12 2 6 6 9 14 7 17 -3 3
-9 2 -12 -2z"/>
<path d="M26616 5115 c7 -17 20 -20 28 -6 3 5 -1 12 -10 15 -22 9 -24 8 -18
-9z"/>
<path d="M25203 5102 c-8 -5 -9 -13 -3 -22 11 -17 23 -8 18 14 -2 9 -8 12 -15
8z"/>
<path d="M23739 5083 c-13 -15 -12 -15 9 -4 23 12 28 21 13 21 -5 0 -15 -7
-22 -17z"/>
<path d="M25248 5051 c-3 -34 -1 -37 14 -27 11 7 13 13 6 17 -6 4 -8 14 -5 23
3 8 2 18 -2 21 -5 3 -11 -12 -13 -34z"/>
<path d="M26820 5011 c0 -6 4 -13 10 -16 6 -3 7 1 4 9 -7 18 -14 21 -14 7z"/>
<path d="M26931 4973 c-6 -14 -9 -28 -6 -31 3 -3 5 0 5 6 0 6 7 17 15 26 8 8
11 17 7 20 -5 3 -14 -6 -21 -21z"/>
<path d="M26890 4980 c0 -5 5 -10 10 -10 6 0 10 5 10 10 0 6 -4 10 -10 10 -5
0 -10 -4 -10 -10z"/>
<path d="M26047 4963 c-11 -10 -8 -43 3 -43 9 0 30 31 30 44 0 8 -25 7 -33 -1z"/>
<path d="M26945 4920 c3 -5 8 -10 11 -10 2 0 4 5 4 10 0 6 -5 10 -11 10 -5 0
-7 -4 -4 -10z"/>
<path d="M26830 4913 c0 -6 8 -17 18 -24 16 -13 16 -13 2 6 -8 11 -16 22 -17
24 -2 2 -3 0 -3 -6z"/>
<path d="M26891 4903 c24 -31 41 -65 34 -71 -3 -4 -10 0 -15 7 -4 8 -15 11
-23 8 -8 -3 -20 0 -27 6 -10 10 -10 7 -1 -11 7 -12 16 -20 20 -17 5 2 8 -3 7
-12 -2 -23 53 -24 65 -1 7 12 6 18 -2 18 -6 0 -8 7 -5 15 3 9 -6 28 -21 45
-28 32 -56 42 -32 13z"/>
<path d="M26230 4901 c0 -5 5 -13 10 -16 6 -3 10 -2 10 4 0 5 -4 13 -10 16 -5
3 -10 2 -10 -4z"/>
<path d="M26800 4886 c0 -2 8 -10 18 -17 15 -13 16 -12 3 4 -13 16 -21 21 -21
13z"/>
<path d="M26700 4750 c0 -5 9 -14 20 -20 19 -10 20 -10 8 9 -13 22 -28 28 -28
11z"/>
<path d="M26777 4745 c3 -11 10 -26 16 -32 9 -12 3 -17 -15 -14 -5 0 -8 -3 -8
-9 0 -5 4 -10 10 -10 5 0 14 -15 20 -32 l10 -33 -4 36 c-2 20 0 41 5 46 7 7 1
20 -15 39 -20 22 -24 24 -19 9z"/>
<path d="M26860 4746 c0 -9 5 -16 10 -16 6 0 10 4 10 9 0 6 -4 13 -10 16 -5 3
-10 -1 -10 -9z"/>
<path d="M26595 4740 c3 -5 8 -10 11 -10 2 0 4 5 4 10 0 6 -5 10 -11 10 -5 0
-7 -4 -4 -10z"/>
<path d="M26820 4722 c0 -10 22 -32 32 -32 5 0 3 9 -4 20 -13 20 -28 27 -28
12z"/>
<path d="M26685 4689 c-5 -16 -10 -18 -21 -8 -10 8 -14 9 -14 0 0 -6 7 -14 15
-17 23 -9 18 -27 -6 -21 -16 4 -20 1 -17 -16 2 -14 10 -21 20 -21 10 1 16 -2
13 -6 -6 -10 25 -43 33 -36 2 3 0 11 -5 18 -24 32 2 107 32 91 5 -4 1 3 -9 15
-24 27 -33 28 -41 1z"/>
<path d="M26820 4670 c0 -5 4 -10 9 -10 6 0 13 5 16 10 3 6 -1 10 -9 10 -9 0
-16 -4 -16 -10z"/>
<path d="M26350 4650 c0 -5 5 -10 11 -10 5 0 7 5 4 10 -3 6 -8 10 -11 10 -2 0
-4 -4 -4 -10z"/>
<path d="M26380 4600 c-9 -6 -10 -10 -3 -10 6 0 15 5 18 10 8 12 4 12 -15 0z"/>
<path d="M26805 4590 c-3 -5 -3 -15 1 -21 6 -11 23 6 24 24 0 10 -18 9 -25 -3z"/>
<path d="M26318 4573 c-10 -3 -18 -11 -18 -19 0 -8 -7 -14 -16 -14 -11 0 -14
-6 -8 -22 3 -13 11 -29 16 -35 13 -16 32 -17 23 -3 -4 6 -1 18 6 26 10 12 14
12 20 2 6 -9 9 -9 9 -1 0 16 -17 26 -25 13 -8 -13 -25 -13 -25 1 0 13 21 34
40 41 19 6 0 16 -22 11z"/>
<path d="M26386 4573 c-12 -12 -5 -23 14 -23 11 0 20 4 20 9 0 11 -26 22 -34
14z"/>
<path d="M26620 4570 c0 -5 5 -10 11 -10 5 0 7 5 4 10 -3 6 -8 10 -11 10 -2 0
-4 -4 -4 -10z"/>
<path d="M26635 4530 c3 -5 8 -10 11 -10 2 0 4 5 4 10 0 6 -5 10 -11 10 -5 0
-7 -4 -4 -10z"/>
<path d="M26675 4530 c-3 -5 -1 -10 4 -10 6 0 11 5 11 10 0 6 -2 10 -4 10 -3
0 -8 -4 -11 -10z"/>
<path d="M26425 4509 c-4 -6 -5 -12 -2 -15 2 -3 7 2 10 11 7 17 1 20 -8 4z"/>
<path d="M26915 4470 c-3 -5 -1 -18 4 -27 9 -16 10 -14 11 10 0 28 -5 34 -15
17z"/>
<path d="M26680 4430 c0 -5 5 -10 10 -10 6 0 10 5 10 10 0 6 -4 10 -10 10 -5
0 -10 -4 -10 -10z"/>
<path d="M26670 4396 c0 -8 5 -18 12 -22 7 -4 8 -3 4 4 -4 7 -2 12 4 12 6 0 8
5 5 10 -9 15 -25 12 -25 -4z"/>
<path d="M26630 4360 c0 -5 5 -10 10 -10 6 0 10 5 10 10 0 6 -4 10 -10 10 -5
0 -10 -4 -10 -10z"/>
<path d="M26821 4294 c0 -11 3 -14 6 -6 3 7 2 16 -1 19 -3 4 -6 -2 -5 -13z"/>
<path d="M26820 4226 c0 -3 9 -10 20 -16 11 -6 20 -8 20 -6 0 3 -9 10 -20 16
-11 6 -20 8 -20 6z"/>
<path d="M26790 4199 c0 -5 5 -7 10 -4 6 3 10 8 10 11 0 2 -4 4 -10 4 -5 0
-10 -5 -10 -11z"/>
<path d="M26920 4160 c0 -5 5 -10 11 -10 5 0 7 5 4 10 -3 6 -8 10 -11 10 -2 0
-4 -4 -4 -10z"/>
<path d="M27111 4114 c0 -11 3 -14 6 -6 3 7 2 16 -1 19 -3 4 -6 -2 -5 -13z"/>
<path d="M27141 4104 c0 -11 3 -14 6 -7 3 10 8 9 20 -2 16 -16 43 -20 43 -6 0
5 -8 11 -17 14 -10 2 -26 8 -35 12 -14 5 -18 2 -17 -11z"/>
<path d="M27203 4050 c-6 -23 -19 -26 -26 -7 -4 9 -6 9 -6 0 -1 -6 3 -14 8
-17 5 -3 7 -16 5 -29 l-5 -22 10 23 c6 12 15 22 20 22 6 0 8 7 5 15 -4 10 0
15 11 15 9 0 13 5 10 10 -10 16 -27 11 -32 -10z"/>
<path d="M27232 3980 c9 -26 13 -30 16 -16 2 10 -3 26 -12 35 -15 15 -16 13
-4 -19z"/>
<path d="M27326 3984 c-8 -21 -9 -20 13 -20 16 0 17 4 10 18 -12 22 -15 22
-23 2z"/>
<path d="M27150 3976 c0 -2 7 -7 16 -10 8 -3 12 -2 9 4 -6 10 -25 14 -25 6z"/>
<path d="M27325 3940 c-9 -14 4 -52 16 -45 12 8 12 42 0 50 -5 3 -12 1 -16 -5z"/>
<path d="M27161 3931 c-8 -5 -9 -11 -3 -15 5 -3 12 1 16 9 6 17 6 18 -13 6z"/>
<path d="M27226 3931 c-4 -7 -5 -15 -2 -18 9 -9 19 4 14 18 -4 11 -6 11 -12 0z"/>
<path d="M22681 3804 c0 -11 3 -14 6 -6 3 7 2 16 -1 19 -3 4 -6 -2 -5 -13z"/>
<path d="M22820 3719 c0 -5 5 -7 10 -4 6 3 10 8 10 11 0 2 -4 4 -10 4 -5 0
-10 -5 -10 -11z"/>
<path d="M22870 3564 c0 -8 5 -12 10 -9 6 4 8 11 5 16 -9 14 -15 11 -15 -7z"/>
<path d="M22682 3445 c0 -16 2 -22 5 -12 2 9 2 23 0 30 -3 6 -5 -1 -5 -18z"/>
<path d="M22691 3364 c0 -11 3 -14 6 -6 3 7 2 16 -1 19 -3 4 -6 -2 -5 -13z"/>
<path d="M22767 3301 c-2 -11 1 -28 9 -38 12 -17 13 -16 14 7 0 36 -16 58 -23
31z"/>
<path d="M22871 3253 c-1 -13 -5 -23 -11 -23 -38 0 -16 -174 23 -186 11 -4 23
0 28 7 10 16 0 119 -12 135 -5 6 -13 28 -18 50 -5 23 -9 30 -10 17z"/>
</g>
</svg>
